G04 #@! TF.GenerationSoftware,KiCad,Pcbnew,(5.1.4)-1*
G04 #@! TF.CreationDate,2020-11-27T18:52:48+01:00*
G04 #@! TF.ProjectId,SpaceBADGE,53706163-6542-4414-9447-452e6b696361,rev?*
G04 #@! TF.SameCoordinates,Original*
G04 #@! TF.FileFunction,Copper,L2,Bot*
G04 #@! TF.FilePolarity,Positive*
%FSLAX46Y46*%
G04 Gerber Fmt 4.6, Leading zero omitted, Abs format (unit mm)*
G04 Created by KiCad (PCBNEW (5.1.4)-1) date 2020-11-27 18:52:48*
%MOMM*%
%LPD*%
G04 APERTURE LIST*
%ADD10C,1.425000*%
%ADD11C,0.100000*%
%ADD12R,4.500000X2.600000*%
%ADD13C,3.000000*%
%ADD14R,2.500000X1.000000*%
%ADD15R,1.000000X1.000000*%
%ADD16R,1.700000X1.000000*%
%ADD17R,1.800000X1.800000*%
%ADD18C,1.800000*%
%ADD19C,0.250000*%
%ADD20C,0.254000*%
G04 APERTURE END LIST*
D10*
X73865740Y-116615820D03*
D11*
G36*
X74740740Y-115903320D02*
G01*
X74740740Y-118515820D01*
X73874855Y-117328320D01*
X73856625Y-117328320D01*
X72990740Y-118515820D01*
X72990740Y-115903320D01*
X74740740Y-115903320D01*
X74740740Y-115903320D01*
G37*
D10*
X73865740Y-119590820D03*
D11*
G36*
X72992578Y-118878320D02*
G01*
X73865740Y-117690820D01*
X74738902Y-118878320D01*
X74740740Y-118878320D01*
X74740740Y-120303320D01*
X72990740Y-120303320D01*
X72990740Y-118878320D01*
X72992578Y-118878320D01*
X72992578Y-118878320D01*
G37*
D12*
X104529060Y-126199900D03*
X74929060Y-126199900D03*
D13*
X93798660Y-102816660D03*
X85798660Y-102816660D03*
D14*
X108094780Y-112270520D03*
X108044780Y-119570520D03*
D15*
X109524780Y-119570520D03*
X109524780Y-112270520D03*
D16*
X106494780Y-118070520D03*
X106494780Y-116670520D03*
X106494780Y-113820520D03*
D17*
X97386800Y-115655600D03*
D18*
X99926800Y-115655600D03*
X88526800Y-115555600D03*
D17*
X85986800Y-115555600D03*
D19*
X102657400Y-115655600D02*
X99926800Y-115655600D01*
X103428800Y-114884200D02*
X102657400Y-115655600D01*
X99211600Y-108196810D02*
X103428800Y-112414010D01*
X81769790Y-108196810D02*
X99211600Y-108196810D01*
X81762600Y-108204000D02*
X81769790Y-108196810D01*
X87301799Y-114330599D02*
X76728439Y-114330599D01*
X88526800Y-115555600D02*
X87301799Y-114330599D01*
X103428800Y-112414010D02*
X103428800Y-114884200D01*
X76728439Y-114330599D02*
X76423520Y-114025680D01*
X76423520Y-114025680D02*
X76423520Y-113568480D01*
X76423520Y-113568480D02*
X81762600Y-108229400D01*
X81762600Y-108229400D02*
X81762600Y-108204000D01*
X99926800Y-115655600D02*
X101215700Y-115655600D01*
X100654000Y-116382800D02*
X99926800Y-115655600D01*
X103159560Y-116382800D02*
X100654000Y-116382800D01*
X103490191Y-116713431D02*
X103159560Y-116382800D01*
X103490191Y-123305280D02*
X103490191Y-116713431D01*
X103268780Y-127490220D02*
X103268780Y-123526691D01*
X103268780Y-123526691D02*
X103490191Y-123305280D01*
X73968780Y-121673591D02*
X73970311Y-121672060D01*
X75029060Y-122733871D02*
X75029060Y-126199900D01*
X73968780Y-121673591D02*
X75029060Y-122733871D01*
X73865740Y-120599200D02*
X73865740Y-119590820D01*
X73968780Y-121673591D02*
X73865740Y-121570551D01*
X73865740Y-121570551D02*
X73865740Y-120599200D01*
X85977300Y-115555600D02*
X85202309Y-114780609D01*
X85986800Y-115555600D02*
X85977300Y-115555600D01*
X85986800Y-115555600D02*
X85875700Y-115555600D01*
X86387900Y-117106700D02*
X85986800Y-116705600D01*
X89265760Y-117106700D02*
X86387900Y-117106700D01*
X89102889Y-113880589D02*
X90076020Y-114853720D01*
X76999239Y-113880589D02*
X89102889Y-113880589D01*
X76873530Y-113754880D02*
X76999239Y-113880589D01*
X81981590Y-108646820D02*
X76873530Y-113754880D01*
X85986800Y-116705600D02*
X85986800Y-115555600D01*
X99025200Y-108646820D02*
X81981590Y-108646820D01*
X90076020Y-114853720D02*
X90076020Y-116296440D01*
X97386800Y-115655600D02*
X97386800Y-114505600D01*
X97666060Y-114226340D02*
X102445820Y-114226340D01*
X102445820Y-114226340D02*
X102791260Y-113880900D01*
X90076020Y-116296440D02*
X89265760Y-117106700D01*
X97386800Y-114505600D02*
X97666060Y-114226340D01*
X102791260Y-113880900D02*
X102791260Y-112412880D01*
X102791260Y-112412880D02*
X99025200Y-108646820D01*
X105542100Y-116695920D02*
X105942100Y-116695920D01*
X103040181Y-123118879D02*
X101582220Y-124576840D01*
X103040181Y-117233701D02*
X103040181Y-123118879D01*
X107617260Y-127982980D02*
X107617260Y-124399040D01*
X102814120Y-117007640D02*
X103040181Y-117233701D01*
X106862880Y-128737360D02*
X107617260Y-127982980D01*
X97386800Y-115655600D02*
X98113798Y-115655600D01*
X99465838Y-117007640D02*
X102814120Y-117007640D01*
X103944420Y-123217940D02*
X103944420Y-117293600D01*
X98113798Y-115655600D02*
X99465838Y-117007640D01*
X107248960Y-124030740D02*
X104757220Y-124030740D01*
X104542100Y-116695920D02*
X105542100Y-116695920D01*
X101582220Y-124576840D02*
X101582220Y-128176020D01*
X102143560Y-128737360D02*
X106862880Y-128737360D01*
X104757220Y-124030740D02*
X103944420Y-123217940D01*
X101582220Y-128176020D02*
X102143560Y-128737360D01*
X107617260Y-124399040D02*
X107248960Y-124030740D01*
X103944420Y-117293600D02*
X104542100Y-116695920D01*
X99398000Y-107746800D02*
X105356800Y-113705600D01*
X81559400Y-107746800D02*
X99398000Y-107746800D01*
X73865740Y-115440460D02*
X73865740Y-116615820D01*
X74101960Y-115204240D02*
X73865740Y-115440460D01*
X74101960Y-115204240D02*
X81559400Y-107746800D01*
X73970311Y-115335889D02*
X74101960Y-115204240D01*
X105381720Y-113680680D02*
X106408240Y-113680680D01*
X105356800Y-113705600D02*
X105381720Y-113680680D01*
D20*
G36*
X88884540Y-97122492D02*
G01*
X88644732Y-97362300D01*
X88456316Y-97644284D01*
X88326533Y-97957608D01*
X88260370Y-98290230D01*
X88260370Y-98629370D01*
X88326533Y-98961992D01*
X88456316Y-99275316D01*
X88644732Y-99557300D01*
X88884540Y-99797108D01*
X89166524Y-99985524D01*
X89479848Y-100115307D01*
X89812470Y-100181470D01*
X90151610Y-100181470D01*
X90484232Y-100115307D01*
X90797556Y-99985524D01*
X91079540Y-99797108D01*
X91319348Y-99557300D01*
X91507764Y-99275316D01*
X91637547Y-98961992D01*
X91703710Y-98629370D01*
X91703710Y-98290230D01*
X91637547Y-97957608D01*
X91507764Y-97644284D01*
X91319348Y-97362300D01*
X91079540Y-97122492D01*
X90887156Y-96993945D01*
X92359597Y-97045269D01*
X94743875Y-97538534D01*
X96856028Y-98192451D01*
X98861551Y-99087369D01*
X100915142Y-100228490D01*
X102603971Y-101418282D01*
X104286101Y-102969322D01*
X105971877Y-104739036D01*
X107124803Y-106283191D01*
X108187753Y-108093575D01*
X109097173Y-110053981D01*
X109472907Y-111132448D01*
X106844780Y-111132448D01*
X106720298Y-111144708D01*
X106600600Y-111181018D01*
X106490286Y-111239983D01*
X106393595Y-111319335D01*
X106314243Y-111416026D01*
X106255278Y-111526340D01*
X106218968Y-111646038D01*
X106206708Y-111770520D01*
X106206708Y-112682448D01*
X105644780Y-112682448D01*
X105520298Y-112694708D01*
X105443888Y-112717887D01*
X99961804Y-107235803D01*
X99938001Y-107206799D01*
X99822276Y-107111826D01*
X99690247Y-107041254D01*
X99546986Y-106997797D01*
X99435333Y-106986800D01*
X99435322Y-106986800D01*
X99398000Y-106983124D01*
X99360678Y-106986800D01*
X81596725Y-106986800D01*
X81559400Y-106983124D01*
X81522075Y-106986800D01*
X81522067Y-106986800D01*
X81410414Y-106997797D01*
X81267153Y-107041254D01*
X81135124Y-107111826D01*
X81019399Y-107206799D01*
X80995601Y-107235797D01*
X73590958Y-114640441D01*
X73354743Y-114876656D01*
X73325739Y-114900459D01*
X73285038Y-114950054D01*
X73230766Y-115016184D01*
X73169222Y-115131324D01*
X73160194Y-115148214D01*
X73124693Y-115265248D01*
X72990740Y-115265248D01*
X72866258Y-115277508D01*
X72746560Y-115313818D01*
X72636246Y-115372783D01*
X72539555Y-115452135D01*
X72460203Y-115548826D01*
X72401238Y-115659140D01*
X72364928Y-115778838D01*
X72352668Y-115903320D01*
X72352668Y-118515820D01*
X72360353Y-118614555D01*
X72381925Y-118697807D01*
X72364928Y-118753838D01*
X72352668Y-118878320D01*
X72352668Y-120303320D01*
X72364928Y-120427802D01*
X72401238Y-120547500D01*
X72460203Y-120657814D01*
X72539555Y-120754505D01*
X72636246Y-120833857D01*
X72746560Y-120892822D01*
X72866258Y-120929132D01*
X72990740Y-120941392D01*
X73105741Y-120941392D01*
X73105740Y-121533228D01*
X73102064Y-121570551D01*
X73105740Y-121607873D01*
X73105740Y-121607883D01*
X73116737Y-121719536D01*
X73147994Y-121822577D01*
X73160194Y-121862797D01*
X73230766Y-121994827D01*
X73270611Y-122043377D01*
X73325739Y-122110552D01*
X73354743Y-122134355D01*
X73404976Y-122184588D01*
X73428779Y-122213592D01*
X73457782Y-122237395D01*
X74269060Y-123048673D01*
X74269060Y-124261828D01*
X72679060Y-124261828D01*
X72554578Y-124274088D01*
X72434880Y-124310398D01*
X72324566Y-124369363D01*
X72227875Y-124448715D01*
X72148523Y-124545406D01*
X72089558Y-124655720D01*
X72053248Y-124775418D01*
X72040988Y-124899900D01*
X72040988Y-127499900D01*
X72053248Y-127624382D01*
X72089558Y-127744080D01*
X72148523Y-127854394D01*
X72227875Y-127951085D01*
X72324566Y-128030437D01*
X72434880Y-128089402D01*
X72554578Y-128125712D01*
X72679060Y-128137972D01*
X77179060Y-128137972D01*
X77303542Y-128125712D01*
X77423240Y-128089402D01*
X77533554Y-128030437D01*
X77630245Y-127951085D01*
X77709597Y-127854394D01*
X77768562Y-127744080D01*
X77804872Y-127624382D01*
X77817132Y-127499900D01*
X77817132Y-124899900D01*
X77804872Y-124775418D01*
X77768562Y-124655720D01*
X77709597Y-124545406D01*
X77630245Y-124448715D01*
X77533554Y-124369363D01*
X77423240Y-124310398D01*
X77303542Y-124274088D01*
X77179060Y-124261828D01*
X75789060Y-124261828D01*
X75789060Y-122771193D01*
X75792736Y-122733870D01*
X75789060Y-122696547D01*
X75789060Y-122696538D01*
X75778063Y-122584885D01*
X75734606Y-122441624D01*
X75664034Y-122309595D01*
X75569061Y-122193870D01*
X75540064Y-122170073D01*
X74625740Y-121255750D01*
X74625740Y-120941392D01*
X74740740Y-120941392D01*
X74865222Y-120929132D01*
X74984920Y-120892822D01*
X75095234Y-120833857D01*
X75191925Y-120754505D01*
X75271277Y-120657814D01*
X75330242Y-120547500D01*
X75366552Y-120427802D01*
X75378812Y-120303320D01*
X75378812Y-118878320D01*
X75366552Y-118753838D01*
X75349332Y-118697070D01*
X75366552Y-118640302D01*
X75378812Y-118515820D01*
X75378812Y-115903320D01*
X75366552Y-115778838D01*
X75330242Y-115659140D01*
X75271277Y-115548826D01*
X75191925Y-115452135D01*
X75095234Y-115372783D01*
X75038528Y-115342473D01*
X75852778Y-114528223D01*
X75883519Y-114565681D01*
X75912523Y-114589484D01*
X76164635Y-114841596D01*
X76188438Y-114870600D01*
X76304163Y-114965573D01*
X76430656Y-115033186D01*
X76436192Y-115036145D01*
X76579453Y-115079602D01*
X76728439Y-115094276D01*
X76765772Y-115090599D01*
X84448728Y-115090599D01*
X84448728Y-116455600D01*
X84460988Y-116580082D01*
X84497298Y-116699780D01*
X84556263Y-116810094D01*
X84635615Y-116906785D01*
X84732306Y-116986137D01*
X84842620Y-117045102D01*
X84962318Y-117081412D01*
X85086800Y-117093672D01*
X85332474Y-117093672D01*
X85351826Y-117129876D01*
X85385182Y-117170520D01*
X85446799Y-117245601D01*
X85475803Y-117269404D01*
X85824096Y-117617697D01*
X85847899Y-117646701D01*
X85963624Y-117741674D01*
X86095653Y-117812246D01*
X86238914Y-117855703D01*
X86350567Y-117866700D01*
X86350576Y-117866700D01*
X86387899Y-117870376D01*
X86425222Y-117866700D01*
X89228438Y-117866700D01*
X89265760Y-117870376D01*
X89303082Y-117866700D01*
X89303093Y-117866700D01*
X89414746Y-117855703D01*
X89558007Y-117812246D01*
X89690036Y-117741674D01*
X89805761Y-117646701D01*
X89829563Y-117617698D01*
X90587022Y-116860239D01*
X90616021Y-116836441D01*
X90710994Y-116720716D01*
X90781566Y-116588687D01*
X90825023Y-116445426D01*
X90836020Y-116333773D01*
X90836020Y-116333765D01*
X90839696Y-116296440D01*
X90836020Y-116259115D01*
X90836020Y-114891042D01*
X90839696Y-114853719D01*
X90836020Y-114816396D01*
X90836020Y-114816387D01*
X90825023Y-114704734D01*
X90781566Y-114561473D01*
X90757614Y-114516663D01*
X90710994Y-114429443D01*
X90639819Y-114342717D01*
X90616021Y-114313719D01*
X90587024Y-114289922D01*
X89666693Y-113369591D01*
X89642890Y-113340588D01*
X89527165Y-113245615D01*
X89395136Y-113175043D01*
X89251875Y-113131586D01*
X89140222Y-113120589D01*
X89140211Y-113120589D01*
X89102889Y-113116913D01*
X89065567Y-113120589D01*
X78582622Y-113120589D01*
X82296392Y-109406820D01*
X98710399Y-109406820D01*
X102031261Y-112727683D01*
X102031260Y-113466340D01*
X97703382Y-113466340D01*
X97666059Y-113462664D01*
X97628736Y-113466340D01*
X97628727Y-113466340D01*
X97517074Y-113477337D01*
X97373813Y-113520794D01*
X97241784Y-113591366D01*
X97126059Y-113686339D01*
X97102256Y-113715343D01*
X96875798Y-113941801D01*
X96846800Y-113965599D01*
X96823002Y-113994597D01*
X96823001Y-113994598D01*
X96751826Y-114081324D01*
X96732474Y-114117528D01*
X96486800Y-114117528D01*
X96362318Y-114129788D01*
X96242620Y-114166098D01*
X96132306Y-114225063D01*
X96035615Y-114304415D01*
X95956263Y-114401106D01*
X95897298Y-114511420D01*
X95860988Y-114631118D01*
X95848728Y-114755600D01*
X95848728Y-116555600D01*
X95860988Y-116680082D01*
X95897298Y-116799780D01*
X95956263Y-116910094D01*
X96035615Y-117006785D01*
X96132306Y-117086137D01*
X96242620Y-117145102D01*
X96362318Y-117181412D01*
X96486800Y-117193672D01*
X98286800Y-117193672D01*
X98411282Y-117181412D01*
X98529076Y-117145680D01*
X98902038Y-117518642D01*
X98925837Y-117547641D01*
X99041562Y-117642614D01*
X99173591Y-117713186D01*
X99316852Y-117756643D01*
X99428505Y-117767640D01*
X99428514Y-117767640D01*
X99465837Y-117771316D01*
X99503160Y-117767640D01*
X102280181Y-117767640D01*
X102280182Y-122804076D01*
X101071223Y-124013036D01*
X101042219Y-124036839D01*
X101017720Y-124066692D01*
X100947246Y-124152564D01*
X100932728Y-124179725D01*
X100876674Y-124284594D01*
X100833217Y-124427855D01*
X100822220Y-124539508D01*
X100822220Y-124539518D01*
X100818544Y-124576840D01*
X100822220Y-124614163D01*
X100822221Y-128138688D01*
X100818544Y-128176020D01*
X100833218Y-128325005D01*
X100876674Y-128468266D01*
X100947246Y-128600296D01*
X101018421Y-128687022D01*
X101042220Y-128716021D01*
X101071218Y-128739819D01*
X101579760Y-129248362D01*
X101603559Y-129277361D01*
X101719284Y-129372334D01*
X101851313Y-129442906D01*
X101994574Y-129486363D01*
X102106227Y-129497360D01*
X102106235Y-129497360D01*
X102143560Y-129501036D01*
X102180885Y-129497360D01*
X106825558Y-129497360D01*
X106862880Y-129501036D01*
X106900202Y-129497360D01*
X106900213Y-129497360D01*
X107011866Y-129486363D01*
X107155127Y-129442906D01*
X107221872Y-129407230D01*
X106866070Y-129980293D01*
X105579567Y-131615117D01*
X103210660Y-133966925D01*
X100579688Y-135919055D01*
X99407465Y-136729438D01*
X99383501Y-136742135D01*
X99352103Y-136767711D01*
X99346604Y-136771513D01*
X99326026Y-136788954D01*
X99278885Y-136827354D01*
X99274595Y-136832543D01*
X99269461Y-136836894D01*
X99231650Y-136884483D01*
X99192904Y-136931345D01*
X99189709Y-136937270D01*
X99185522Y-136942540D01*
X99157725Y-136996585D01*
X99128862Y-137050112D01*
X99126884Y-137056549D01*
X99123806Y-137062533D01*
X99107085Y-137120969D01*
X99089222Y-137179091D01*
X99088538Y-137185788D01*
X99086686Y-137192259D01*
X99081686Y-137252836D01*
X99078942Y-137279691D01*
X99078918Y-137286381D01*
X99075587Y-137326734D01*
X99078672Y-137353674D01*
X99069045Y-139988099D01*
X99014644Y-142275991D01*
X98658909Y-142200698D01*
X97530500Y-141957128D01*
X97526131Y-141955789D01*
X97497548Y-141950016D01*
X97469169Y-141943890D01*
X97464650Y-141943371D01*
X91628667Y-140764588D01*
X91610843Y-140760151D01*
X91595651Y-140757920D01*
X91580656Y-140754891D01*
X91562448Y-140753043D01*
X86517692Y-140012132D01*
X86504150Y-140009334D01*
X86484392Y-140007241D01*
X86464776Y-140004360D01*
X86450989Y-140003703D01*
X82541807Y-139589590D01*
X82527068Y-139587209D01*
X82508384Y-139586049D01*
X82489755Y-139584076D01*
X82474815Y-139583966D01*
X77367132Y-139266975D01*
X77365206Y-139266675D01*
X77333504Y-139264888D01*
X77301908Y-139262927D01*
X77299966Y-139262997D01*
X74958096Y-139130982D01*
X74639054Y-139096942D01*
X75196383Y-136942586D01*
X75737971Y-135037430D01*
X75740788Y-135029743D01*
X75747157Y-135005117D01*
X75754127Y-134980598D01*
X75755586Y-134972524D01*
X75836244Y-134660649D01*
X75852874Y-134598953D01*
X75855371Y-134561722D01*
X75861130Y-134524840D01*
X75859874Y-134494561D01*
X75861902Y-134464322D01*
X75857085Y-134427307D01*
X75855539Y-134390023D01*
X75848401Y-134360575D01*
X75844490Y-134330518D01*
X75832545Y-134295156D01*
X75823754Y-134258886D01*
X75811006Y-134231392D01*
X75801308Y-134202681D01*
X75782693Y-134170327D01*
X75766996Y-134136472D01*
X75729339Y-134084877D01*
X75656559Y-133982991D01*
X75640777Y-133960084D01*
X75637016Y-133955632D01*
X75633633Y-133950896D01*
X75615341Y-133929975D01*
X75543237Y-133844623D01*
X75541606Y-133842298D01*
X75521568Y-133818974D01*
X75501649Y-133795395D01*
X75499605Y-133793408D01*
X75336547Y-133603608D01*
X75334776Y-133601129D01*
X75314621Y-133578085D01*
X75294681Y-133554875D01*
X75292480Y-133552771D01*
X74700649Y-132876118D01*
X72821983Y-130703976D01*
X71974999Y-129523082D01*
X70770574Y-127386547D01*
X69802485Y-125127161D01*
X69089450Y-122796324D01*
X68651800Y-120458022D01*
X68581707Y-118317416D01*
X68602605Y-115958488D01*
X69083954Y-113018453D01*
X70109881Y-109889857D01*
X71411461Y-107290462D01*
X72377611Y-105811655D01*
X73455330Y-104436518D01*
X75301550Y-102606381D01*
X83663660Y-102606381D01*
X83663660Y-103026939D01*
X83745707Y-103439416D01*
X83906648Y-103827962D01*
X84140297Y-104177643D01*
X84437677Y-104475023D01*
X84787358Y-104708672D01*
X85175904Y-104869613D01*
X85588381Y-104951660D01*
X86008939Y-104951660D01*
X86421416Y-104869613D01*
X86809962Y-104708672D01*
X87159643Y-104475023D01*
X87457023Y-104177643D01*
X87690672Y-103827962D01*
X87851613Y-103439416D01*
X87933660Y-103026939D01*
X87933660Y-102606381D01*
X91663660Y-102606381D01*
X91663660Y-103026939D01*
X91745707Y-103439416D01*
X91906648Y-103827962D01*
X92140297Y-104177643D01*
X92437677Y-104475023D01*
X92787358Y-104708672D01*
X93175904Y-104869613D01*
X93588381Y-104951660D01*
X94008939Y-104951660D01*
X94421416Y-104869613D01*
X94809962Y-104708672D01*
X95159643Y-104475023D01*
X95457023Y-104177643D01*
X95690672Y-103827962D01*
X95851613Y-103439416D01*
X95933660Y-103026939D01*
X95933660Y-102606381D01*
X95851613Y-102193904D01*
X95690672Y-101805358D01*
X95457023Y-101455677D01*
X95159643Y-101158297D01*
X94809962Y-100924648D01*
X94421416Y-100763707D01*
X94008939Y-100681660D01*
X93588381Y-100681660D01*
X93175904Y-100763707D01*
X92787358Y-100924648D01*
X92437677Y-101158297D01*
X92140297Y-101455677D01*
X91906648Y-101805358D01*
X91745707Y-102193904D01*
X91663660Y-102606381D01*
X87933660Y-102606381D01*
X87851613Y-102193904D01*
X87690672Y-101805358D01*
X87457023Y-101455677D01*
X87159643Y-101158297D01*
X86809962Y-100924648D01*
X86421416Y-100763707D01*
X86008939Y-100681660D01*
X85588381Y-100681660D01*
X85175904Y-100763707D01*
X84787358Y-100924648D01*
X84437677Y-101158297D01*
X84140297Y-101455677D01*
X83906648Y-101805358D01*
X83745707Y-102193904D01*
X83663660Y-102606381D01*
X75301550Y-102606381D01*
X76138486Y-101776737D01*
X78346409Y-100145725D01*
X80823824Y-98811718D01*
X83532007Y-97794143D01*
X86431562Y-97113098D01*
X87658497Y-96975361D01*
X89119756Y-96965325D01*
X88884540Y-97122492D01*
X88884540Y-97122492D01*
G37*
X88884540Y-97122492D02*
X88644732Y-97362300D01*
X88456316Y-97644284D01*
X88326533Y-97957608D01*
X88260370Y-98290230D01*
X88260370Y-98629370D01*
X88326533Y-98961992D01*
X88456316Y-99275316D01*
X88644732Y-99557300D01*
X88884540Y-99797108D01*
X89166524Y-99985524D01*
X89479848Y-100115307D01*
X89812470Y-100181470D01*
X90151610Y-100181470D01*
X90484232Y-100115307D01*
X90797556Y-99985524D01*
X91079540Y-99797108D01*
X91319348Y-99557300D01*
X91507764Y-99275316D01*
X91637547Y-98961992D01*
X91703710Y-98629370D01*
X91703710Y-98290230D01*
X91637547Y-97957608D01*
X91507764Y-97644284D01*
X91319348Y-97362300D01*
X91079540Y-97122492D01*
X90887156Y-96993945D01*
X92359597Y-97045269D01*
X94743875Y-97538534D01*
X96856028Y-98192451D01*
X98861551Y-99087369D01*
X100915142Y-100228490D01*
X102603971Y-101418282D01*
X104286101Y-102969322D01*
X105971877Y-104739036D01*
X107124803Y-106283191D01*
X108187753Y-108093575D01*
X109097173Y-110053981D01*
X109472907Y-111132448D01*
X106844780Y-111132448D01*
X106720298Y-111144708D01*
X106600600Y-111181018D01*
X106490286Y-111239983D01*
X106393595Y-111319335D01*
X106314243Y-111416026D01*
X106255278Y-111526340D01*
X106218968Y-111646038D01*
X106206708Y-111770520D01*
X106206708Y-112682448D01*
X105644780Y-112682448D01*
X105520298Y-112694708D01*
X105443888Y-112717887D01*
X99961804Y-107235803D01*
X99938001Y-107206799D01*
X99822276Y-107111826D01*
X99690247Y-107041254D01*
X99546986Y-106997797D01*
X99435333Y-106986800D01*
X99435322Y-106986800D01*
X99398000Y-106983124D01*
X99360678Y-106986800D01*
X81596725Y-106986800D01*
X81559400Y-106983124D01*
X81522075Y-106986800D01*
X81522067Y-106986800D01*
X81410414Y-106997797D01*
X81267153Y-107041254D01*
X81135124Y-107111826D01*
X81019399Y-107206799D01*
X80995601Y-107235797D01*
X73590958Y-114640441D01*
X73354743Y-114876656D01*
X73325739Y-114900459D01*
X73285038Y-114950054D01*
X73230766Y-115016184D01*
X73169222Y-115131324D01*
X73160194Y-115148214D01*
X73124693Y-115265248D01*
X72990740Y-115265248D01*
X72866258Y-115277508D01*
X72746560Y-115313818D01*
X72636246Y-115372783D01*
X72539555Y-115452135D01*
X72460203Y-115548826D01*
X72401238Y-115659140D01*
X72364928Y-115778838D01*
X72352668Y-115903320D01*
X72352668Y-118515820D01*
X72360353Y-118614555D01*
X72381925Y-118697807D01*
X72364928Y-118753838D01*
X72352668Y-118878320D01*
X72352668Y-120303320D01*
X72364928Y-120427802D01*
X72401238Y-120547500D01*
X72460203Y-120657814D01*
X72539555Y-120754505D01*
X72636246Y-120833857D01*
X72746560Y-120892822D01*
X72866258Y-120929132D01*
X72990740Y-120941392D01*
X73105741Y-120941392D01*
X73105740Y-121533228D01*
X73102064Y-121570551D01*
X73105740Y-121607873D01*
X73105740Y-121607883D01*
X73116737Y-121719536D01*
X73147994Y-121822577D01*
X73160194Y-121862797D01*
X73230766Y-121994827D01*
X73270611Y-122043377D01*
X73325739Y-122110552D01*
X73354743Y-122134355D01*
X73404976Y-122184588D01*
X73428779Y-122213592D01*
X73457782Y-122237395D01*
X74269060Y-123048673D01*
X74269060Y-124261828D01*
X72679060Y-124261828D01*
X72554578Y-124274088D01*
X72434880Y-124310398D01*
X72324566Y-124369363D01*
X72227875Y-124448715D01*
X72148523Y-124545406D01*
X72089558Y-124655720D01*
X72053248Y-124775418D01*
X72040988Y-124899900D01*
X72040988Y-127499900D01*
X72053248Y-127624382D01*
X72089558Y-127744080D01*
X72148523Y-127854394D01*
X72227875Y-127951085D01*
X72324566Y-128030437D01*
X72434880Y-128089402D01*
X72554578Y-128125712D01*
X72679060Y-128137972D01*
X77179060Y-128137972D01*
X77303542Y-128125712D01*
X77423240Y-128089402D01*
X77533554Y-128030437D01*
X77630245Y-127951085D01*
X77709597Y-127854394D01*
X77768562Y-127744080D01*
X77804872Y-127624382D01*
X77817132Y-127499900D01*
X77817132Y-124899900D01*
X77804872Y-124775418D01*
X77768562Y-124655720D01*
X77709597Y-124545406D01*
X77630245Y-124448715D01*
X77533554Y-124369363D01*
X77423240Y-124310398D01*
X77303542Y-124274088D01*
X77179060Y-124261828D01*
X75789060Y-124261828D01*
X75789060Y-122771193D01*
X75792736Y-122733870D01*
X75789060Y-122696547D01*
X75789060Y-122696538D01*
X75778063Y-122584885D01*
X75734606Y-122441624D01*
X75664034Y-122309595D01*
X75569061Y-122193870D01*
X75540064Y-122170073D01*
X74625740Y-121255750D01*
X74625740Y-120941392D01*
X74740740Y-120941392D01*
X74865222Y-120929132D01*
X74984920Y-120892822D01*
X75095234Y-120833857D01*
X75191925Y-120754505D01*
X75271277Y-120657814D01*
X75330242Y-120547500D01*
X75366552Y-120427802D01*
X75378812Y-120303320D01*
X75378812Y-118878320D01*
X75366552Y-118753838D01*
X75349332Y-118697070D01*
X75366552Y-118640302D01*
X75378812Y-118515820D01*
X75378812Y-115903320D01*
X75366552Y-115778838D01*
X75330242Y-115659140D01*
X75271277Y-115548826D01*
X75191925Y-115452135D01*
X75095234Y-115372783D01*
X75038528Y-115342473D01*
X75852778Y-114528223D01*
X75883519Y-114565681D01*
X75912523Y-114589484D01*
X76164635Y-114841596D01*
X76188438Y-114870600D01*
X76304163Y-114965573D01*
X76430656Y-115033186D01*
X76436192Y-115036145D01*
X76579453Y-115079602D01*
X76728439Y-115094276D01*
X76765772Y-115090599D01*
X84448728Y-115090599D01*
X84448728Y-116455600D01*
X84460988Y-116580082D01*
X84497298Y-116699780D01*
X84556263Y-116810094D01*
X84635615Y-116906785D01*
X84732306Y-116986137D01*
X84842620Y-117045102D01*
X84962318Y-117081412D01*
X85086800Y-117093672D01*
X85332474Y-117093672D01*
X85351826Y-117129876D01*
X85385182Y-117170520D01*
X85446799Y-117245601D01*
X85475803Y-117269404D01*
X85824096Y-117617697D01*
X85847899Y-117646701D01*
X85963624Y-117741674D01*
X86095653Y-117812246D01*
X86238914Y-117855703D01*
X86350567Y-117866700D01*
X86350576Y-117866700D01*
X86387899Y-117870376D01*
X86425222Y-117866700D01*
X89228438Y-117866700D01*
X89265760Y-117870376D01*
X89303082Y-117866700D01*
X89303093Y-117866700D01*
X89414746Y-117855703D01*
X89558007Y-117812246D01*
X89690036Y-117741674D01*
X89805761Y-117646701D01*
X89829563Y-117617698D01*
X90587022Y-116860239D01*
X90616021Y-116836441D01*
X90710994Y-116720716D01*
X90781566Y-116588687D01*
X90825023Y-116445426D01*
X90836020Y-116333773D01*
X90836020Y-116333765D01*
X90839696Y-116296440D01*
X90836020Y-116259115D01*
X90836020Y-114891042D01*
X90839696Y-114853719D01*
X90836020Y-114816396D01*
X90836020Y-114816387D01*
X90825023Y-114704734D01*
X90781566Y-114561473D01*
X90757614Y-114516663D01*
X90710994Y-114429443D01*
X90639819Y-114342717D01*
X90616021Y-114313719D01*
X90587024Y-114289922D01*
X89666693Y-113369591D01*
X89642890Y-113340588D01*
X89527165Y-113245615D01*
X89395136Y-113175043D01*
X89251875Y-113131586D01*
X89140222Y-113120589D01*
X89140211Y-113120589D01*
X89102889Y-113116913D01*
X89065567Y-113120589D01*
X78582622Y-113120589D01*
X82296392Y-109406820D01*
X98710399Y-109406820D01*
X102031261Y-112727683D01*
X102031260Y-113466340D01*
X97703382Y-113466340D01*
X97666059Y-113462664D01*
X97628736Y-113466340D01*
X97628727Y-113466340D01*
X97517074Y-113477337D01*
X97373813Y-113520794D01*
X97241784Y-113591366D01*
X97126059Y-113686339D01*
X97102256Y-113715343D01*
X96875798Y-113941801D01*
X96846800Y-113965599D01*
X96823002Y-113994597D01*
X96823001Y-113994598D01*
X96751826Y-114081324D01*
X96732474Y-114117528D01*
X96486800Y-114117528D01*
X96362318Y-114129788D01*
X96242620Y-114166098D01*
X96132306Y-114225063D01*
X96035615Y-114304415D01*
X95956263Y-114401106D01*
X95897298Y-114511420D01*
X95860988Y-114631118D01*
X95848728Y-114755600D01*
X95848728Y-116555600D01*
X95860988Y-116680082D01*
X95897298Y-116799780D01*
X95956263Y-116910094D01*
X96035615Y-117006785D01*
X96132306Y-117086137D01*
X96242620Y-117145102D01*
X96362318Y-117181412D01*
X96486800Y-117193672D01*
X98286800Y-117193672D01*
X98411282Y-117181412D01*
X98529076Y-117145680D01*
X98902038Y-117518642D01*
X98925837Y-117547641D01*
X99041562Y-117642614D01*
X99173591Y-117713186D01*
X99316852Y-117756643D01*
X99428505Y-117767640D01*
X99428514Y-117767640D01*
X99465837Y-117771316D01*
X99503160Y-117767640D01*
X102280181Y-117767640D01*
X102280182Y-122804076D01*
X101071223Y-124013036D01*
X101042219Y-124036839D01*
X101017720Y-124066692D01*
X100947246Y-124152564D01*
X100932728Y-124179725D01*
X100876674Y-124284594D01*
X100833217Y-124427855D01*
X100822220Y-124539508D01*
X100822220Y-124539518D01*
X100818544Y-124576840D01*
X100822220Y-124614163D01*
X100822221Y-128138688D01*
X100818544Y-128176020D01*
X100833218Y-128325005D01*
X100876674Y-128468266D01*
X100947246Y-128600296D01*
X101018421Y-128687022D01*
X101042220Y-128716021D01*
X101071218Y-128739819D01*
X101579760Y-129248362D01*
X101603559Y-129277361D01*
X101719284Y-129372334D01*
X101851313Y-129442906D01*
X101994574Y-129486363D01*
X102106227Y-129497360D01*
X102106235Y-129497360D01*
X102143560Y-129501036D01*
X102180885Y-129497360D01*
X106825558Y-129497360D01*
X106862880Y-129501036D01*
X106900202Y-129497360D01*
X106900213Y-129497360D01*
X107011866Y-129486363D01*
X107155127Y-129442906D01*
X107221872Y-129407230D01*
X106866070Y-129980293D01*
X105579567Y-131615117D01*
X103210660Y-133966925D01*
X100579688Y-135919055D01*
X99407465Y-136729438D01*
X99383501Y-136742135D01*
X99352103Y-136767711D01*
X99346604Y-136771513D01*
X99326026Y-136788954D01*
X99278885Y-136827354D01*
X99274595Y-136832543D01*
X99269461Y-136836894D01*
X99231650Y-136884483D01*
X99192904Y-136931345D01*
X99189709Y-136937270D01*
X99185522Y-136942540D01*
X99157725Y-136996585D01*
X99128862Y-137050112D01*
X99126884Y-137056549D01*
X99123806Y-137062533D01*
X99107085Y-137120969D01*
X99089222Y-137179091D01*
X99088538Y-137185788D01*
X99086686Y-137192259D01*
X99081686Y-137252836D01*
X99078942Y-137279691D01*
X99078918Y-137286381D01*
X99075587Y-137326734D01*
X99078672Y-137353674D01*
X99069045Y-139988099D01*
X99014644Y-142275991D01*
X98658909Y-142200698D01*
X97530500Y-141957128D01*
X97526131Y-141955789D01*
X97497548Y-141950016D01*
X97469169Y-141943890D01*
X97464650Y-141943371D01*
X91628667Y-140764588D01*
X91610843Y-140760151D01*
X91595651Y-140757920D01*
X91580656Y-140754891D01*
X91562448Y-140753043D01*
X86517692Y-140012132D01*
X86504150Y-140009334D01*
X86484392Y-140007241D01*
X86464776Y-140004360D01*
X86450989Y-140003703D01*
X82541807Y-139589590D01*
X82527068Y-139587209D01*
X82508384Y-139586049D01*
X82489755Y-139584076D01*
X82474815Y-139583966D01*
X77367132Y-139266975D01*
X77365206Y-139266675D01*
X77333504Y-139264888D01*
X77301908Y-139262927D01*
X77299966Y-139262997D01*
X74958096Y-139130982D01*
X74639054Y-139096942D01*
X75196383Y-136942586D01*
X75737971Y-135037430D01*
X75740788Y-135029743D01*
X75747157Y-135005117D01*
X75754127Y-134980598D01*
X75755586Y-134972524D01*
X75836244Y-134660649D01*
X75852874Y-134598953D01*
X75855371Y-134561722D01*
X75861130Y-134524840D01*
X75859874Y-134494561D01*
X75861902Y-134464322D01*
X75857085Y-134427307D01*
X75855539Y-134390023D01*
X75848401Y-134360575D01*
X75844490Y-134330518D01*
X75832545Y-134295156D01*
X75823754Y-134258886D01*
X75811006Y-134231392D01*
X75801308Y-134202681D01*
X75782693Y-134170327D01*
X75766996Y-134136472D01*
X75729339Y-134084877D01*
X75656559Y-133982991D01*
X75640777Y-133960084D01*
X75637016Y-133955632D01*
X75633633Y-133950896D01*
X75615341Y-133929975D01*
X75543237Y-133844623D01*
X75541606Y-133842298D01*
X75521568Y-133818974D01*
X75501649Y-133795395D01*
X75499605Y-133793408D01*
X75336547Y-133603608D01*
X75334776Y-133601129D01*
X75314621Y-133578085D01*
X75294681Y-133554875D01*
X75292480Y-133552771D01*
X74700649Y-132876118D01*
X72821983Y-130703976D01*
X71974999Y-129523082D01*
X70770574Y-127386547D01*
X69802485Y-125127161D01*
X69089450Y-122796324D01*
X68651800Y-120458022D01*
X68581707Y-118317416D01*
X68602605Y-115958488D01*
X69083954Y-113018453D01*
X70109881Y-109889857D01*
X71411461Y-107290462D01*
X72377611Y-105811655D01*
X73455330Y-104436518D01*
X75301550Y-102606381D01*
X83663660Y-102606381D01*
X83663660Y-103026939D01*
X83745707Y-103439416D01*
X83906648Y-103827962D01*
X84140297Y-104177643D01*
X84437677Y-104475023D01*
X84787358Y-104708672D01*
X85175904Y-104869613D01*
X85588381Y-104951660D01*
X86008939Y-104951660D01*
X86421416Y-104869613D01*
X86809962Y-104708672D01*
X87159643Y-104475023D01*
X87457023Y-104177643D01*
X87690672Y-103827962D01*
X87851613Y-103439416D01*
X87933660Y-103026939D01*
X87933660Y-102606381D01*
X91663660Y-102606381D01*
X91663660Y-103026939D01*
X91745707Y-103439416D01*
X91906648Y-103827962D01*
X92140297Y-104177643D01*
X92437677Y-104475023D01*
X92787358Y-104708672D01*
X93175904Y-104869613D01*
X93588381Y-104951660D01*
X94008939Y-104951660D01*
X94421416Y-104869613D01*
X94809962Y-104708672D01*
X95159643Y-104475023D01*
X95457023Y-104177643D01*
X95690672Y-103827962D01*
X95851613Y-103439416D01*
X95933660Y-103026939D01*
X95933660Y-102606381D01*
X95851613Y-102193904D01*
X95690672Y-101805358D01*
X95457023Y-101455677D01*
X95159643Y-101158297D01*
X94809962Y-100924648D01*
X94421416Y-100763707D01*
X94008939Y-100681660D01*
X93588381Y-100681660D01*
X93175904Y-100763707D01*
X92787358Y-100924648D01*
X92437677Y-101158297D01*
X92140297Y-101455677D01*
X91906648Y-101805358D01*
X91745707Y-102193904D01*
X91663660Y-102606381D01*
X87933660Y-102606381D01*
X87851613Y-102193904D01*
X87690672Y-101805358D01*
X87457023Y-101455677D01*
X87159643Y-101158297D01*
X86809962Y-100924648D01*
X86421416Y-100763707D01*
X86008939Y-100681660D01*
X85588381Y-100681660D01*
X85175904Y-100763707D01*
X84787358Y-100924648D01*
X84437677Y-101158297D01*
X84140297Y-101455677D01*
X83906648Y-101805358D01*
X83745707Y-102193904D01*
X83663660Y-102606381D01*
X75301550Y-102606381D01*
X76138486Y-101776737D01*
X78346409Y-100145725D01*
X80823824Y-98811718D01*
X83532007Y-97794143D01*
X86431562Y-97113098D01*
X87658497Y-96975361D01*
X89119756Y-96965325D01*
X88884540Y-97122492D01*
G36*
X105006708Y-117570520D02*
G01*
X105006708Y-118570520D01*
X105018968Y-118695002D01*
X105055278Y-118814700D01*
X105114243Y-118925014D01*
X105193595Y-119021705D01*
X105290286Y-119101057D01*
X105400600Y-119160022D01*
X105520298Y-119196332D01*
X105644780Y-119208592D01*
X106156708Y-119208592D01*
X106156708Y-120070520D01*
X106168968Y-120195002D01*
X106205278Y-120314700D01*
X106264243Y-120425014D01*
X106343595Y-120521705D01*
X106440286Y-120601057D01*
X106550600Y-120660022D01*
X106670298Y-120696332D01*
X106794780Y-120708592D01*
X110024780Y-120708592D01*
X110149262Y-120696332D01*
X110268960Y-120660022D01*
X110379274Y-120601057D01*
X110448487Y-120544256D01*
X110253242Y-121901885D01*
X109710726Y-124109525D01*
X108973359Y-126153896D01*
X108377260Y-127381970D01*
X108377260Y-124436363D01*
X108380936Y-124399040D01*
X108377260Y-124361717D01*
X108377260Y-124361707D01*
X108366263Y-124250054D01*
X108322806Y-124106793D01*
X108252234Y-123974764D01*
X108157261Y-123859039D01*
X108128257Y-123835236D01*
X107812764Y-123519743D01*
X107788961Y-123490739D01*
X107673236Y-123395766D01*
X107541207Y-123325194D01*
X107397946Y-123281737D01*
X107286293Y-123270740D01*
X107286282Y-123270740D01*
X107248960Y-123267064D01*
X107211638Y-123270740D01*
X105072022Y-123270740D01*
X104704420Y-122903139D01*
X104704420Y-117608401D01*
X104856902Y-117455920D01*
X105017995Y-117455920D01*
X105006708Y-117570520D01*
X105006708Y-117570520D01*
G37*
X105006708Y-117570520D02*
X105006708Y-118570520D01*
X105018968Y-118695002D01*
X105055278Y-118814700D01*
X105114243Y-118925014D01*
X105193595Y-119021705D01*
X105290286Y-119101057D01*
X105400600Y-119160022D01*
X105520298Y-119196332D01*
X105644780Y-119208592D01*
X106156708Y-119208592D01*
X106156708Y-120070520D01*
X106168968Y-120195002D01*
X106205278Y-120314700D01*
X106264243Y-120425014D01*
X106343595Y-120521705D01*
X106440286Y-120601057D01*
X106550600Y-120660022D01*
X106670298Y-120696332D01*
X106794780Y-120708592D01*
X110024780Y-120708592D01*
X110149262Y-120696332D01*
X110268960Y-120660022D01*
X110379274Y-120601057D01*
X110448487Y-120544256D01*
X110253242Y-121901885D01*
X109710726Y-124109525D01*
X108973359Y-126153896D01*
X108377260Y-127381970D01*
X108377260Y-124436363D01*
X108380936Y-124399040D01*
X108377260Y-124361717D01*
X108377260Y-124361707D01*
X108366263Y-124250054D01*
X108322806Y-124106793D01*
X108252234Y-123974764D01*
X108157261Y-123859039D01*
X108128257Y-123835236D01*
X107812764Y-123519743D01*
X107788961Y-123490739D01*
X107673236Y-123395766D01*
X107541207Y-123325194D01*
X107397946Y-123281737D01*
X107286293Y-123270740D01*
X107286282Y-123270740D01*
X107248960Y-123267064D01*
X107211638Y-123270740D01*
X105072022Y-123270740D01*
X104704420Y-122903139D01*
X104704420Y-117608401D01*
X104856902Y-117455920D01*
X105017995Y-117455920D01*
X105006708Y-117570520D01*
G36*
X110266187Y-114022642D02*
G01*
X110531911Y-115796699D01*
X110533270Y-118689162D01*
X110475965Y-118619335D01*
X110379274Y-118539983D01*
X110268960Y-118481018D01*
X110149262Y-118444708D01*
X110024780Y-118432448D01*
X108817012Y-118432448D01*
X108938720Y-118382035D01*
X109116427Y-118263295D01*
X109267555Y-118112167D01*
X109386295Y-117934460D01*
X109468084Y-117737003D01*
X109509780Y-117527383D01*
X109509780Y-117313657D01*
X109468084Y-117104037D01*
X109386295Y-116906580D01*
X109267555Y-116728873D01*
X109116427Y-116577745D01*
X108938720Y-116459005D01*
X108741263Y-116377216D01*
X108531643Y-116335520D01*
X108317917Y-116335520D01*
X108108297Y-116377216D01*
X107982852Y-116429177D01*
X107982852Y-116170520D01*
X107970592Y-116046038D01*
X107934282Y-115926340D01*
X107875317Y-115816026D01*
X107795965Y-115719335D01*
X107699274Y-115639983D01*
X107588960Y-115581018D01*
X107469262Y-115544708D01*
X107344780Y-115532448D01*
X105644780Y-115532448D01*
X105520298Y-115544708D01*
X105400600Y-115581018D01*
X105290286Y-115639983D01*
X105193595Y-115719335D01*
X105114243Y-115816026D01*
X105055278Y-115926340D01*
X105052372Y-115935920D01*
X104579422Y-115935920D01*
X104542099Y-115932244D01*
X104504776Y-115935920D01*
X104504767Y-115935920D01*
X104393114Y-115946917D01*
X104249853Y-115990374D01*
X104117824Y-116060946D01*
X104005477Y-116153147D01*
X104001188Y-116149627D01*
X103723364Y-115871803D01*
X103699561Y-115842799D01*
X103614670Y-115773131D01*
X103939802Y-115447999D01*
X103968801Y-115424201D01*
X104063774Y-115308476D01*
X104134346Y-115176447D01*
X104177803Y-115033186D01*
X104188800Y-114921533D01*
X104188800Y-114921524D01*
X104192476Y-114884201D01*
X104188800Y-114846878D01*
X104188800Y-113612402D01*
X104793001Y-114216603D01*
X104816799Y-114245601D01*
X104845797Y-114269399D01*
X104932524Y-114340574D01*
X105012915Y-114383545D01*
X105018968Y-114445002D01*
X105055278Y-114564700D01*
X105114243Y-114675014D01*
X105193595Y-114771705D01*
X105290286Y-114851057D01*
X105400600Y-114910022D01*
X105520298Y-114946332D01*
X105644780Y-114958592D01*
X107344780Y-114958592D01*
X107469262Y-114946332D01*
X107470871Y-114945844D01*
X107582005Y-115112167D01*
X107733133Y-115263295D01*
X107910840Y-115382035D01*
X108108297Y-115463824D01*
X108317917Y-115505520D01*
X108531643Y-115505520D01*
X108741263Y-115463824D01*
X108938720Y-115382035D01*
X109116427Y-115263295D01*
X109267555Y-115112167D01*
X109386295Y-114934460D01*
X109468084Y-114737003D01*
X109509780Y-114527383D01*
X109509780Y-114313657D01*
X109468084Y-114104037D01*
X109386295Y-113906580D01*
X109267555Y-113728873D01*
X109116427Y-113577745D01*
X108938720Y-113459005D01*
X108817012Y-113408592D01*
X110024780Y-113408592D01*
X110116461Y-113399562D01*
X110266187Y-114022642D01*
X110266187Y-114022642D01*
G37*
X110266187Y-114022642D02*
X110531911Y-115796699D01*
X110533270Y-118689162D01*
X110475965Y-118619335D01*
X110379274Y-118539983D01*
X110268960Y-118481018D01*
X110149262Y-118444708D01*
X110024780Y-118432448D01*
X108817012Y-118432448D01*
X108938720Y-118382035D01*
X109116427Y-118263295D01*
X109267555Y-118112167D01*
X109386295Y-117934460D01*
X109468084Y-117737003D01*
X109509780Y-117527383D01*
X109509780Y-117313657D01*
X109468084Y-117104037D01*
X109386295Y-116906580D01*
X109267555Y-116728873D01*
X109116427Y-116577745D01*
X108938720Y-116459005D01*
X108741263Y-116377216D01*
X108531643Y-116335520D01*
X108317917Y-116335520D01*
X108108297Y-116377216D01*
X107982852Y-116429177D01*
X107982852Y-116170520D01*
X107970592Y-116046038D01*
X107934282Y-115926340D01*
X107875317Y-115816026D01*
X107795965Y-115719335D01*
X107699274Y-115639983D01*
X107588960Y-115581018D01*
X107469262Y-115544708D01*
X107344780Y-115532448D01*
X105644780Y-115532448D01*
X105520298Y-115544708D01*
X105400600Y-115581018D01*
X105290286Y-115639983D01*
X105193595Y-115719335D01*
X105114243Y-115816026D01*
X105055278Y-115926340D01*
X105052372Y-115935920D01*
X104579422Y-115935920D01*
X104542099Y-115932244D01*
X104504776Y-115935920D01*
X104504767Y-115935920D01*
X104393114Y-115946917D01*
X104249853Y-115990374D01*
X104117824Y-116060946D01*
X104005477Y-116153147D01*
X104001188Y-116149627D01*
X103723364Y-115871803D01*
X103699561Y-115842799D01*
X103614670Y-115773131D01*
X103939802Y-115447999D01*
X103968801Y-115424201D01*
X104063774Y-115308476D01*
X104134346Y-115176447D01*
X104177803Y-115033186D01*
X104188800Y-114921533D01*
X104188800Y-114921524D01*
X104192476Y-114884201D01*
X104188800Y-114846878D01*
X104188800Y-113612402D01*
X104793001Y-114216603D01*
X104816799Y-114245601D01*
X104845797Y-114269399D01*
X104932524Y-114340574D01*
X105012915Y-114383545D01*
X105018968Y-114445002D01*
X105055278Y-114564700D01*
X105114243Y-114675014D01*
X105193595Y-114771705D01*
X105290286Y-114851057D01*
X105400600Y-114910022D01*
X105520298Y-114946332D01*
X105644780Y-114958592D01*
X107344780Y-114958592D01*
X107469262Y-114946332D01*
X107470871Y-114945844D01*
X107582005Y-115112167D01*
X107733133Y-115263295D01*
X107910840Y-115382035D01*
X108108297Y-115463824D01*
X108317917Y-115505520D01*
X108531643Y-115505520D01*
X108741263Y-115463824D01*
X108938720Y-115382035D01*
X109116427Y-115263295D01*
X109267555Y-115112167D01*
X109386295Y-114934460D01*
X109468084Y-114737003D01*
X109509780Y-114527383D01*
X109509780Y-114313657D01*
X109468084Y-114104037D01*
X109386295Y-113906580D01*
X109267555Y-113728873D01*
X109116427Y-113577745D01*
X108938720Y-113459005D01*
X108817012Y-113408592D01*
X110024780Y-113408592D01*
X110116461Y-113399562D01*
X110266187Y-114022642D01*
G36*
X108032548Y-118432448D02*
G01*
X107982852Y-118432448D01*
X107982852Y-118411863D01*
X108032548Y-118432448D01*
X108032548Y-118432448D01*
G37*
X108032548Y-118432448D02*
X107982852Y-118432448D01*
X107982852Y-118411863D01*
X108032548Y-118432448D01*
G36*
X107982852Y-113429177D02*
G01*
X107982852Y-113408592D01*
X108032548Y-113408592D01*
X107982852Y-113429177D01*
X107982852Y-113429177D01*
G37*
X107982852Y-113429177D02*
X107982852Y-113408592D01*
X108032548Y-113408592D01*
X107982852Y-113429177D01*
M02*
