G04 #@! TF.GenerationSoftware,KiCad,Pcbnew,(5.1.4)-1*
G04 #@! TF.CreationDate,2020-11-27T18:52:48+01:00*
G04 #@! TF.ProjectId,SpaceBADGE,53706163-6542-4414-9447-452e6b696361,rev?*
G04 #@! TF.SameCoordinates,Original*
G04 #@! TF.FileFunction,Soldermask,Bot*
G04 #@! TF.FilePolarity,Negative*
%FSLAX46Y46*%
G04 Gerber Fmt 4.6, Leading zero omitted, Abs format (unit mm)*
G04 Created by KiCad (PCBNEW (5.1.4)-1) date 2020-11-27 18:52:48*
%MOMM*%
%LPD*%
G04 APERTURE LIST*
%ADD10C,1.425000*%
%ADD11C,0.100000*%
%ADD12R,4.900000X3.000000*%
%ADD13C,3.400000*%
%ADD14R,2.900000X1.400000*%
%ADD15R,1.400000X1.400000*%
%ADD16R,2.100000X1.400000*%
%ADD17C,1.300000*%
%ADD18R,2.200000X2.200000*%
%ADD19C,2.200000*%
G04 APERTURE END LIST*
D10*
X73865740Y-116615820D03*
D11*
G36*
X72794583Y-115864302D02*
G01*
X72805964Y-115826783D01*
X72824446Y-115792206D01*
X72849319Y-115761899D01*
X72879626Y-115737026D01*
X72914203Y-115718544D01*
X72951722Y-115707163D01*
X72990740Y-115703320D01*
X74740740Y-115703320D01*
X74779758Y-115707163D01*
X74817277Y-115718544D01*
X74851854Y-115737026D01*
X74882161Y-115761899D01*
X74907034Y-115792206D01*
X74925516Y-115826783D01*
X74936897Y-115864302D01*
X74940740Y-115903320D01*
X74940740Y-118515820D01*
X74936897Y-118554838D01*
X74925516Y-118592357D01*
X74907034Y-118626934D01*
X74882161Y-118657241D01*
X74851854Y-118682114D01*
X74817277Y-118700596D01*
X74779758Y-118711977D01*
X74740740Y-118715820D01*
X74701722Y-118711977D01*
X74664203Y-118700596D01*
X74629626Y-118682114D01*
X74599319Y-118657241D01*
X74579138Y-118633654D01*
X73865740Y-117655279D01*
X73152342Y-118633654D01*
X73126248Y-118662917D01*
X73094947Y-118686527D01*
X73059641Y-118703577D01*
X73021688Y-118713411D01*
X72982545Y-118715652D01*
X72943717Y-118710214D01*
X72906697Y-118697305D01*
X72872906Y-118677422D01*
X72843643Y-118651328D01*
X72820033Y-118620027D01*
X72802983Y-118584721D01*
X72793149Y-118546768D01*
X72790740Y-118515820D01*
X72790740Y-115903320D01*
X72794583Y-115864302D01*
X72794583Y-115864302D01*
G37*
D10*
X73865740Y-119590820D03*
D11*
G36*
X72794583Y-118839302D02*
G01*
X72805964Y-118801783D01*
X72824446Y-118767206D01*
X72839699Y-118748621D01*
X73704610Y-117572342D01*
X73730820Y-117543183D01*
X73762215Y-117519699D01*
X73797588Y-117502790D01*
X73835580Y-117493107D01*
X73874732Y-117491022D01*
X73913538Y-117496616D01*
X73950507Y-117509672D01*
X73984218Y-117529690D01*
X74013377Y-117555900D01*
X74026870Y-117572342D01*
X74891781Y-118748621D01*
X74907034Y-118767206D01*
X74925516Y-118801783D01*
X74936897Y-118839302D01*
X74940740Y-118878320D01*
X74940740Y-120303320D01*
X74936897Y-120342338D01*
X74925516Y-120379857D01*
X74907034Y-120414434D01*
X74882161Y-120444741D01*
X74851854Y-120469614D01*
X74817277Y-120488096D01*
X74779758Y-120499477D01*
X74740740Y-120503320D01*
X72990740Y-120503320D01*
X72951722Y-120499477D01*
X72914203Y-120488096D01*
X72879626Y-120469614D01*
X72849319Y-120444741D01*
X72824446Y-120414434D01*
X72805964Y-120379857D01*
X72794583Y-120342338D01*
X72790740Y-120303320D01*
X72790740Y-118878320D01*
X72794583Y-118839302D01*
X72794583Y-118839302D01*
G37*
D12*
X104529060Y-126199900D03*
X74929060Y-126199900D03*
D13*
X93798660Y-102816660D03*
X85798660Y-102816660D03*
D14*
X108094780Y-112270520D03*
X108044780Y-119570520D03*
D15*
X109524780Y-119570520D03*
X109524780Y-112270520D03*
D16*
X106494780Y-118070520D03*
X106494780Y-116670520D03*
X106494780Y-113820520D03*
D17*
X108424780Y-117420520D03*
X108424780Y-114420520D03*
D18*
X97386800Y-115655600D03*
D19*
X99926800Y-115655600D03*
X88526800Y-115555600D03*
D18*
X85986800Y-115555600D03*
M02*
