G04 #@! TF.GenerationSoftware,KiCad,Pcbnew,(5.1.4)-1*
G04 #@! TF.CreationDate,2020-11-27T18:52:48+01:00*
G04 #@! TF.ProjectId,SpaceBADGE,53706163-6542-4414-9447-452e6b696361,rev?*
G04 #@! TF.SameCoordinates,Original*
G04 #@! TF.FileFunction,Legend,Top*
G04 #@! TF.FilePolarity,Positive*
%FSLAX46Y46*%
G04 Gerber Fmt 4.6, Leading zero omitted, Abs format (unit mm)*
G04 Created by KiCad (PCBNEW (5.1.4)-1) date 2020-11-27 18:52:48*
%MOMM*%
%LPD*%
G04 APERTURE LIST*
%ADD10C,0.010000*%
G04 APERTURE END LIST*
D10*
G36*
X94856239Y-100756658D02*
G01*
X94995317Y-100778211D01*
X95162241Y-100814868D01*
X95353581Y-100865532D01*
X95565910Y-100929109D01*
X95795800Y-101004503D01*
X96039823Y-101090617D01*
X96294550Y-101186357D01*
X96556553Y-101290625D01*
X96822405Y-101402327D01*
X97088677Y-101520366D01*
X97190382Y-101567178D01*
X97740955Y-101838343D01*
X98301274Y-102143303D01*
X98863696Y-102477260D01*
X99420577Y-102835412D01*
X99964275Y-103212958D01*
X100487145Y-103605099D01*
X100685717Y-103762522D01*
X101101533Y-104110949D01*
X101524585Y-104490976D01*
X101946953Y-104894675D01*
X102360721Y-105314118D01*
X102757969Y-105741376D01*
X103130781Y-106168522D01*
X103331962Y-106412183D01*
X103837652Y-107071900D01*
X104312696Y-107760497D01*
X104756802Y-108477346D01*
X105169681Y-109221822D01*
X105551042Y-109993299D01*
X105900595Y-110791150D01*
X106218049Y-111614750D01*
X106503115Y-112463472D01*
X106755502Y-113336690D01*
X106974920Y-114233778D01*
X106991215Y-114307350D01*
X107039773Y-114532990D01*
X107078478Y-114724853D01*
X107108345Y-114890076D01*
X107130394Y-115035797D01*
X107145640Y-115169152D01*
X107155103Y-115297279D01*
X107159797Y-115427315D01*
X107160681Y-115496228D01*
X107161031Y-115620974D01*
X107159685Y-115710945D01*
X107155801Y-115773693D01*
X107148539Y-115816769D01*
X107137056Y-115847723D01*
X107120512Y-115874106D01*
X107118217Y-115877228D01*
X107086906Y-115912121D01*
X107049557Y-115931383D01*
X106991781Y-115940630D01*
X106948833Y-115943349D01*
X106860014Y-115942050D01*
X106799908Y-115929082D01*
X106787592Y-115922182D01*
X106757902Y-115888161D01*
X106721510Y-115824874D01*
X106677711Y-115730554D01*
X106625802Y-115603433D01*
X106565079Y-115441742D01*
X106494837Y-115243713D01*
X106414374Y-115007579D01*
X106367969Y-114868267D01*
X106281494Y-114608006D01*
X106205401Y-114381599D01*
X106137361Y-114182523D01*
X106075044Y-114004252D01*
X106016118Y-113840263D01*
X105958254Y-113684029D01*
X105899121Y-113529028D01*
X105836390Y-113368733D01*
X105797206Y-113270183D01*
X105421901Y-112387723D01*
X105007940Y-111522027D01*
X104555881Y-110673907D01*
X104066278Y-109844173D01*
X103539689Y-109033637D01*
X102976669Y-108243108D01*
X102377776Y-107473398D01*
X101743565Y-106725318D01*
X101074594Y-105999678D01*
X100371418Y-105297289D01*
X100241217Y-105173354D01*
X99696932Y-104671483D01*
X99163046Y-104205080D01*
X98634259Y-103770299D01*
X98105270Y-103363291D01*
X97570779Y-102980210D01*
X97025488Y-102617210D01*
X96464096Y-102270441D01*
X95881303Y-101936059D01*
X95489300Y-101723952D01*
X95282601Y-101613320D01*
X95110781Y-101518297D01*
X94970379Y-101436542D01*
X94857935Y-101365716D01*
X94769986Y-101303480D01*
X94703072Y-101247494D01*
X94653732Y-101195419D01*
X94618504Y-101144915D01*
X94610173Y-101129727D01*
X94585614Y-101052425D01*
X94581194Y-100965340D01*
X94594751Y-100880632D01*
X94624123Y-100810460D01*
X94667149Y-100766983D01*
X94675331Y-100763248D01*
X94748435Y-100751306D01*
X94856239Y-100756658D01*
X94856239Y-100756658D01*
G37*
X94856239Y-100756658D02*
X94995317Y-100778211D01*
X95162241Y-100814868D01*
X95353581Y-100865532D01*
X95565910Y-100929109D01*
X95795800Y-101004503D01*
X96039823Y-101090617D01*
X96294550Y-101186357D01*
X96556553Y-101290625D01*
X96822405Y-101402327D01*
X97088677Y-101520366D01*
X97190382Y-101567178D01*
X97740955Y-101838343D01*
X98301274Y-102143303D01*
X98863696Y-102477260D01*
X99420577Y-102835412D01*
X99964275Y-103212958D01*
X100487145Y-103605099D01*
X100685717Y-103762522D01*
X101101533Y-104110949D01*
X101524585Y-104490976D01*
X101946953Y-104894675D01*
X102360721Y-105314118D01*
X102757969Y-105741376D01*
X103130781Y-106168522D01*
X103331962Y-106412183D01*
X103837652Y-107071900D01*
X104312696Y-107760497D01*
X104756802Y-108477346D01*
X105169681Y-109221822D01*
X105551042Y-109993299D01*
X105900595Y-110791150D01*
X106218049Y-111614750D01*
X106503115Y-112463472D01*
X106755502Y-113336690D01*
X106974920Y-114233778D01*
X106991215Y-114307350D01*
X107039773Y-114532990D01*
X107078478Y-114724853D01*
X107108345Y-114890076D01*
X107130394Y-115035797D01*
X107145640Y-115169152D01*
X107155103Y-115297279D01*
X107159797Y-115427315D01*
X107160681Y-115496228D01*
X107161031Y-115620974D01*
X107159685Y-115710945D01*
X107155801Y-115773693D01*
X107148539Y-115816769D01*
X107137056Y-115847723D01*
X107120512Y-115874106D01*
X107118217Y-115877228D01*
X107086906Y-115912121D01*
X107049557Y-115931383D01*
X106991781Y-115940630D01*
X106948833Y-115943349D01*
X106860014Y-115942050D01*
X106799908Y-115929082D01*
X106787592Y-115922182D01*
X106757902Y-115888161D01*
X106721510Y-115824874D01*
X106677711Y-115730554D01*
X106625802Y-115603433D01*
X106565079Y-115441742D01*
X106494837Y-115243713D01*
X106414374Y-115007579D01*
X106367969Y-114868267D01*
X106281494Y-114608006D01*
X106205401Y-114381599D01*
X106137361Y-114182523D01*
X106075044Y-114004252D01*
X106016118Y-113840263D01*
X105958254Y-113684029D01*
X105899121Y-113529028D01*
X105836390Y-113368733D01*
X105797206Y-113270183D01*
X105421901Y-112387723D01*
X105007940Y-111522027D01*
X104555881Y-110673907D01*
X104066278Y-109844173D01*
X103539689Y-109033637D01*
X102976669Y-108243108D01*
X102377776Y-107473398D01*
X101743565Y-106725318D01*
X101074594Y-105999678D01*
X100371418Y-105297289D01*
X100241217Y-105173354D01*
X99696932Y-104671483D01*
X99163046Y-104205080D01*
X98634259Y-103770299D01*
X98105270Y-103363291D01*
X97570779Y-102980210D01*
X97025488Y-102617210D01*
X96464096Y-102270441D01*
X95881303Y-101936059D01*
X95489300Y-101723952D01*
X95282601Y-101613320D01*
X95110781Y-101518297D01*
X94970379Y-101436542D01*
X94857935Y-101365716D01*
X94769986Y-101303480D01*
X94703072Y-101247494D01*
X94653732Y-101195419D01*
X94618504Y-101144915D01*
X94610173Y-101129727D01*
X94585614Y-101052425D01*
X94581194Y-100965340D01*
X94594751Y-100880632D01*
X94624123Y-100810460D01*
X94667149Y-100766983D01*
X94675331Y-100763248D01*
X94748435Y-100751306D01*
X94856239Y-100756658D01*
G36*
X107243271Y-116682111D02*
G01*
X107365166Y-116695084D01*
X107463346Y-116720152D01*
X107546834Y-116759912D01*
X107624657Y-116816962D01*
X107651202Y-116840550D01*
X107737772Y-116947084D01*
X107803247Y-117083812D01*
X107845648Y-117243156D01*
X107862997Y-117417538D01*
X107853315Y-117599380D01*
X107851957Y-117609460D01*
X107818265Y-117772024D01*
X107763742Y-117904848D01*
X107683258Y-118014600D01*
X107571681Y-118107945D01*
X107423881Y-118191549D01*
X107392545Y-118206303D01*
X107249597Y-118253551D01*
X107093845Y-118273899D01*
X106939543Y-118266860D01*
X106800948Y-118231948D01*
X106788524Y-118226915D01*
X106631917Y-118143728D01*
X106503621Y-118035968D01*
X106397750Y-117897803D01*
X106330630Y-117773084D01*
X106304206Y-117711918D01*
X106287433Y-117656287D01*
X106278189Y-117593376D01*
X106274354Y-117510368D01*
X106273750Y-117429433D01*
X106274980Y-117323487D01*
X106280073Y-117247047D01*
X106291139Y-117187322D01*
X106310285Y-117131523D01*
X106330252Y-117086607D01*
X106417238Y-116945434D01*
X106531684Y-116828536D01*
X106665814Y-116743455D01*
X106699022Y-116729023D01*
X106759608Y-116707217D01*
X106818474Y-116692717D01*
X106886781Y-116684080D01*
X106975689Y-116679862D01*
X107088633Y-116678635D01*
X107243271Y-116682111D01*
X107243271Y-116682111D01*
G37*
X107243271Y-116682111D02*
X107365166Y-116695084D01*
X107463346Y-116720152D01*
X107546834Y-116759912D01*
X107624657Y-116816962D01*
X107651202Y-116840550D01*
X107737772Y-116947084D01*
X107803247Y-117083812D01*
X107845648Y-117243156D01*
X107862997Y-117417538D01*
X107853315Y-117599380D01*
X107851957Y-117609460D01*
X107818265Y-117772024D01*
X107763742Y-117904848D01*
X107683258Y-118014600D01*
X107571681Y-118107945D01*
X107423881Y-118191549D01*
X107392545Y-118206303D01*
X107249597Y-118253551D01*
X107093845Y-118273899D01*
X106939543Y-118266860D01*
X106800948Y-118231948D01*
X106788524Y-118226915D01*
X106631917Y-118143728D01*
X106503621Y-118035968D01*
X106397750Y-117897803D01*
X106330630Y-117773084D01*
X106304206Y-117711918D01*
X106287433Y-117656287D01*
X106278189Y-117593376D01*
X106274354Y-117510368D01*
X106273750Y-117429433D01*
X106274980Y-117323487D01*
X106280073Y-117247047D01*
X106291139Y-117187322D01*
X106310285Y-117131523D01*
X106330252Y-117086607D01*
X106417238Y-116945434D01*
X106531684Y-116828536D01*
X106665814Y-116743455D01*
X106699022Y-116729023D01*
X106759608Y-116707217D01*
X106818474Y-116692717D01*
X106886781Y-116684080D01*
X106975689Y-116679862D01*
X107088633Y-116678635D01*
X107243271Y-116682111D01*
G36*
X98302290Y-113030767D02*
G01*
X98468960Y-113056631D01*
X98668618Y-113106627D01*
X98897012Y-113179075D01*
X99269476Y-113327592D01*
X99614446Y-113507503D01*
X99930960Y-113717847D01*
X100218054Y-113957664D01*
X100474763Y-114225990D01*
X100700124Y-114521865D01*
X100893174Y-114844328D01*
X101052950Y-115192416D01*
X101130761Y-115408017D01*
X101187411Y-115589949D01*
X101230296Y-115751265D01*
X101261119Y-115903344D01*
X101281581Y-116057567D01*
X101293384Y-116225313D01*
X101298232Y-116417962D01*
X101298574Y-116529850D01*
X101293103Y-116787842D01*
X101276356Y-117015088D01*
X101245914Y-117222239D01*
X101199361Y-117419944D01*
X101134278Y-117618854D01*
X101048249Y-117829618D01*
X100960798Y-118017893D01*
X100850500Y-118233288D01*
X100738100Y-118429175D01*
X100626613Y-118601133D01*
X100519058Y-118744739D01*
X100418449Y-118855568D01*
X100349166Y-118914666D01*
X100288553Y-118951074D01*
X100225979Y-118969383D01*
X100152651Y-118969492D01*
X100059772Y-118951299D01*
X99938548Y-118914703D01*
X99923717Y-118909755D01*
X99809411Y-118867215D01*
X99677218Y-118811348D01*
X99536633Y-118746827D01*
X99397153Y-118678323D01*
X99268274Y-118610509D01*
X99159492Y-118548057D01*
X99080302Y-118495639D01*
X99077050Y-118493183D01*
X98994483Y-118423898D01*
X98928611Y-118351764D01*
X98877828Y-118271279D01*
X98840528Y-118176939D01*
X98815107Y-118063242D01*
X98799960Y-117924687D01*
X98793481Y-117755770D01*
X98794064Y-117550989D01*
X98794516Y-117524683D01*
X98797150Y-117372491D01*
X98801551Y-117252830D01*
X98811841Y-117159235D01*
X98832143Y-117085241D01*
X98866579Y-117024385D01*
X98919272Y-116970200D01*
X98994345Y-116916222D01*
X99095920Y-116855986D01*
X99228120Y-116783028D01*
X99288625Y-116749863D01*
X99420057Y-116665782D01*
X99552514Y-116560058D01*
X99676968Y-116441576D01*
X99784392Y-116319225D01*
X99865756Y-116201891D01*
X99888464Y-116159433D01*
X99951030Y-116013614D01*
X99991223Y-115876422D01*
X100011813Y-115733299D01*
X100015570Y-115569686D01*
X100013349Y-115503267D01*
X99984511Y-115246525D01*
X99921651Y-115014208D01*
X99824085Y-114804654D01*
X99691130Y-114616198D01*
X99614743Y-114532948D01*
X99463972Y-114401129D01*
X99300554Y-114299003D01*
X99118040Y-114223851D01*
X98909984Y-114172956D01*
X98696050Y-114145684D01*
X98559985Y-114133907D01*
X98459150Y-114123879D01*
X98386562Y-114114130D01*
X98335242Y-114103190D01*
X98298207Y-114089586D01*
X98268477Y-114071847D01*
X98240468Y-114049682D01*
X98179557Y-113980764D01*
X98117575Y-113880156D01*
X98058690Y-113758179D01*
X98007067Y-113625151D01*
X97966874Y-113491391D01*
X97942278Y-113367219D01*
X97936639Y-113297233D01*
X97936993Y-113218084D01*
X97944180Y-113167210D01*
X97962039Y-113130661D01*
X97991701Y-113097189D01*
X98064513Y-113051122D01*
X98167759Y-113028956D01*
X98302290Y-113030767D01*
X98302290Y-113030767D01*
G37*
X98302290Y-113030767D02*
X98468960Y-113056631D01*
X98668618Y-113106627D01*
X98897012Y-113179075D01*
X99269476Y-113327592D01*
X99614446Y-113507503D01*
X99930960Y-113717847D01*
X100218054Y-113957664D01*
X100474763Y-114225990D01*
X100700124Y-114521865D01*
X100893174Y-114844328D01*
X101052950Y-115192416D01*
X101130761Y-115408017D01*
X101187411Y-115589949D01*
X101230296Y-115751265D01*
X101261119Y-115903344D01*
X101281581Y-116057567D01*
X101293384Y-116225313D01*
X101298232Y-116417962D01*
X101298574Y-116529850D01*
X101293103Y-116787842D01*
X101276356Y-117015088D01*
X101245914Y-117222239D01*
X101199361Y-117419944D01*
X101134278Y-117618854D01*
X101048249Y-117829618D01*
X100960798Y-118017893D01*
X100850500Y-118233288D01*
X100738100Y-118429175D01*
X100626613Y-118601133D01*
X100519058Y-118744739D01*
X100418449Y-118855568D01*
X100349166Y-118914666D01*
X100288553Y-118951074D01*
X100225979Y-118969383D01*
X100152651Y-118969492D01*
X100059772Y-118951299D01*
X99938548Y-118914703D01*
X99923717Y-118909755D01*
X99809411Y-118867215D01*
X99677218Y-118811348D01*
X99536633Y-118746827D01*
X99397153Y-118678323D01*
X99268274Y-118610509D01*
X99159492Y-118548057D01*
X99080302Y-118495639D01*
X99077050Y-118493183D01*
X98994483Y-118423898D01*
X98928611Y-118351764D01*
X98877828Y-118271279D01*
X98840528Y-118176939D01*
X98815107Y-118063242D01*
X98799960Y-117924687D01*
X98793481Y-117755770D01*
X98794064Y-117550989D01*
X98794516Y-117524683D01*
X98797150Y-117372491D01*
X98801551Y-117252830D01*
X98811841Y-117159235D01*
X98832143Y-117085241D01*
X98866579Y-117024385D01*
X98919272Y-116970200D01*
X98994345Y-116916222D01*
X99095920Y-116855986D01*
X99228120Y-116783028D01*
X99288625Y-116749863D01*
X99420057Y-116665782D01*
X99552514Y-116560058D01*
X99676968Y-116441576D01*
X99784392Y-116319225D01*
X99865756Y-116201891D01*
X99888464Y-116159433D01*
X99951030Y-116013614D01*
X99991223Y-115876422D01*
X100011813Y-115733299D01*
X100015570Y-115569686D01*
X100013349Y-115503267D01*
X99984511Y-115246525D01*
X99921651Y-115014208D01*
X99824085Y-114804654D01*
X99691130Y-114616198D01*
X99614743Y-114532948D01*
X99463972Y-114401129D01*
X99300554Y-114299003D01*
X99118040Y-114223851D01*
X98909984Y-114172956D01*
X98696050Y-114145684D01*
X98559985Y-114133907D01*
X98459150Y-114123879D01*
X98386562Y-114114130D01*
X98335242Y-114103190D01*
X98298207Y-114089586D01*
X98268477Y-114071847D01*
X98240468Y-114049682D01*
X98179557Y-113980764D01*
X98117575Y-113880156D01*
X98058690Y-113758179D01*
X98007067Y-113625151D01*
X97966874Y-113491391D01*
X97942278Y-113367219D01*
X97936639Y-113297233D01*
X97936993Y-113218084D01*
X97944180Y-113167210D01*
X97962039Y-113130661D01*
X97991701Y-113097189D01*
X98064513Y-113051122D01*
X98167759Y-113028956D01*
X98302290Y-113030767D01*
G36*
X87663892Y-112479388D02*
G01*
X87988467Y-112513713D01*
X88096817Y-112530554D01*
X88436052Y-112609106D01*
X88768422Y-112727702D01*
X89091242Y-112884260D01*
X89401825Y-113076697D01*
X89697484Y-113302930D01*
X89975535Y-113560877D01*
X90233290Y-113848456D01*
X90468063Y-114163583D01*
X90677168Y-114504177D01*
X90702623Y-114550767D01*
X90772248Y-114687750D01*
X90843484Y-114841500D01*
X90911714Y-115000876D01*
X90972326Y-115154740D01*
X91020703Y-115291956D01*
X91048086Y-115384548D01*
X91060751Y-115437906D01*
X91070959Y-115492537D01*
X91079072Y-115554070D01*
X91085447Y-115628133D01*
X91090446Y-115720355D01*
X91094427Y-115836365D01*
X91097751Y-115981792D01*
X91100777Y-116162265D01*
X91101664Y-116222933D01*
X91104266Y-116466341D01*
X91103862Y-116673645D01*
X91099434Y-116851031D01*
X91089965Y-117004681D01*
X91074439Y-117140780D01*
X91051837Y-117265510D01*
X91021143Y-117385057D01*
X90981339Y-117505603D01*
X90931407Y-117633332D01*
X90870332Y-117774429D01*
X90832766Y-117857465D01*
X90636594Y-118245292D01*
X90418861Y-118596811D01*
X90179151Y-118912385D01*
X89917051Y-119192378D01*
X89632146Y-119437155D01*
X89324022Y-119647080D01*
X88992264Y-119822517D01*
X88636459Y-119963829D01*
X88334967Y-120052367D01*
X88208104Y-120081192D01*
X88060638Y-120109945D01*
X87914115Y-120134616D01*
X87826967Y-120146895D01*
X87695966Y-120160499D01*
X87540258Y-120172073D01*
X87369203Y-120181347D01*
X87192164Y-120188048D01*
X87018501Y-120191905D01*
X86857578Y-120192647D01*
X86718755Y-120190003D01*
X86611394Y-120183700D01*
X86599300Y-120182499D01*
X86387970Y-120146517D01*
X86155064Y-120082950D01*
X85907829Y-119995218D01*
X85653512Y-119886741D01*
X85399361Y-119760938D01*
X85152623Y-119621231D01*
X84920545Y-119471037D01*
X84710375Y-119313779D01*
X84647964Y-119261691D01*
X84469708Y-119091318D01*
X84290228Y-118887538D01*
X84115665Y-118658633D01*
X83952159Y-118412886D01*
X83805852Y-118158577D01*
X83752309Y-118053850D01*
X83593529Y-117684719D01*
X83474739Y-117306657D01*
X83395456Y-116922604D01*
X83355194Y-116535498D01*
X83353470Y-116148278D01*
X83389801Y-115763882D01*
X83458771Y-115410511D01*
X85679520Y-115410511D01*
X85688023Y-115614886D01*
X85734793Y-115827385D01*
X85819298Y-116050798D01*
X85890575Y-116196332D01*
X86030993Y-116427715D01*
X86190517Y-116624199D01*
X86373541Y-116790582D01*
X86539993Y-116905335D01*
X86719612Y-117001377D01*
X86891377Y-117062861D01*
X87063118Y-117090531D01*
X87242667Y-117085130D01*
X87437854Y-117047400D01*
X87581865Y-117004209D01*
X87848996Y-116897766D01*
X88079962Y-116769346D01*
X88274878Y-116618790D01*
X88433856Y-116445936D01*
X88557011Y-116250625D01*
X88644456Y-116032698D01*
X88696304Y-115791994D01*
X88712670Y-115528354D01*
X88709423Y-115418600D01*
X88677033Y-115162070D01*
X88609413Y-114928075D01*
X88507973Y-114717948D01*
X88374122Y-114533019D01*
X88209270Y-114374620D01*
X88014827Y-114244083D01*
X87792203Y-114142739D01*
X87542809Y-114071920D01*
X87268052Y-114032958D01*
X87240143Y-114030925D01*
X87004049Y-114028019D01*
X86799753Y-114053045D01*
X86627261Y-114106002D01*
X86571728Y-114132555D01*
X86484874Y-114188822D01*
X86378762Y-114274161D01*
X86259384Y-114383663D01*
X86229556Y-114412863D01*
X86038774Y-114618462D01*
X85888910Y-114818236D01*
X85779433Y-115014976D01*
X85709813Y-115211471D01*
X85679520Y-115410511D01*
X83458771Y-115410511D01*
X83463702Y-115385249D01*
X83574690Y-115015317D01*
X83722280Y-114657025D01*
X83905988Y-114313311D01*
X84125331Y-113987114D01*
X84379826Y-113681373D01*
X84491455Y-113565365D01*
X84744277Y-113333293D01*
X85013451Y-113123373D01*
X85291664Y-112940498D01*
X85571606Y-112789560D01*
X85792604Y-112694822D01*
X86055167Y-112611621D01*
X86348192Y-112546574D01*
X86663626Y-112500252D01*
X86993422Y-112473232D01*
X87329527Y-112466086D01*
X87663892Y-112479388D01*
X87663892Y-112479388D01*
G37*
X87663892Y-112479388D02*
X87988467Y-112513713D01*
X88096817Y-112530554D01*
X88436052Y-112609106D01*
X88768422Y-112727702D01*
X89091242Y-112884260D01*
X89401825Y-113076697D01*
X89697484Y-113302930D01*
X89975535Y-113560877D01*
X90233290Y-113848456D01*
X90468063Y-114163583D01*
X90677168Y-114504177D01*
X90702623Y-114550767D01*
X90772248Y-114687750D01*
X90843484Y-114841500D01*
X90911714Y-115000876D01*
X90972326Y-115154740D01*
X91020703Y-115291956D01*
X91048086Y-115384548D01*
X91060751Y-115437906D01*
X91070959Y-115492537D01*
X91079072Y-115554070D01*
X91085447Y-115628133D01*
X91090446Y-115720355D01*
X91094427Y-115836365D01*
X91097751Y-115981792D01*
X91100777Y-116162265D01*
X91101664Y-116222933D01*
X91104266Y-116466341D01*
X91103862Y-116673645D01*
X91099434Y-116851031D01*
X91089965Y-117004681D01*
X91074439Y-117140780D01*
X91051837Y-117265510D01*
X91021143Y-117385057D01*
X90981339Y-117505603D01*
X90931407Y-117633332D01*
X90870332Y-117774429D01*
X90832766Y-117857465D01*
X90636594Y-118245292D01*
X90418861Y-118596811D01*
X90179151Y-118912385D01*
X89917051Y-119192378D01*
X89632146Y-119437155D01*
X89324022Y-119647080D01*
X88992264Y-119822517D01*
X88636459Y-119963829D01*
X88334967Y-120052367D01*
X88208104Y-120081192D01*
X88060638Y-120109945D01*
X87914115Y-120134616D01*
X87826967Y-120146895D01*
X87695966Y-120160499D01*
X87540258Y-120172073D01*
X87369203Y-120181347D01*
X87192164Y-120188048D01*
X87018501Y-120191905D01*
X86857578Y-120192647D01*
X86718755Y-120190003D01*
X86611394Y-120183700D01*
X86599300Y-120182499D01*
X86387970Y-120146517D01*
X86155064Y-120082950D01*
X85907829Y-119995218D01*
X85653512Y-119886741D01*
X85399361Y-119760938D01*
X85152623Y-119621231D01*
X84920545Y-119471037D01*
X84710375Y-119313779D01*
X84647964Y-119261691D01*
X84469708Y-119091318D01*
X84290228Y-118887538D01*
X84115665Y-118658633D01*
X83952159Y-118412886D01*
X83805852Y-118158577D01*
X83752309Y-118053850D01*
X83593529Y-117684719D01*
X83474739Y-117306657D01*
X83395456Y-116922604D01*
X83355194Y-116535498D01*
X83353470Y-116148278D01*
X83389801Y-115763882D01*
X83458771Y-115410511D01*
X85679520Y-115410511D01*
X85688023Y-115614886D01*
X85734793Y-115827385D01*
X85819298Y-116050798D01*
X85890575Y-116196332D01*
X86030993Y-116427715D01*
X86190517Y-116624199D01*
X86373541Y-116790582D01*
X86539993Y-116905335D01*
X86719612Y-117001377D01*
X86891377Y-117062861D01*
X87063118Y-117090531D01*
X87242667Y-117085130D01*
X87437854Y-117047400D01*
X87581865Y-117004209D01*
X87848996Y-116897766D01*
X88079962Y-116769346D01*
X88274878Y-116618790D01*
X88433856Y-116445936D01*
X88557011Y-116250625D01*
X88644456Y-116032698D01*
X88696304Y-115791994D01*
X88712670Y-115528354D01*
X88709423Y-115418600D01*
X88677033Y-115162070D01*
X88609413Y-114928075D01*
X88507973Y-114717948D01*
X88374122Y-114533019D01*
X88209270Y-114374620D01*
X88014827Y-114244083D01*
X87792203Y-114142739D01*
X87542809Y-114071920D01*
X87268052Y-114032958D01*
X87240143Y-114030925D01*
X87004049Y-114028019D01*
X86799753Y-114053045D01*
X86627261Y-114106002D01*
X86571728Y-114132555D01*
X86484874Y-114188822D01*
X86378762Y-114274161D01*
X86259384Y-114383663D01*
X86229556Y-114412863D01*
X86038774Y-114618462D01*
X85888910Y-114818236D01*
X85779433Y-115014976D01*
X85709813Y-115211471D01*
X85679520Y-115410511D01*
X83458771Y-115410511D01*
X83463702Y-115385249D01*
X83574690Y-115015317D01*
X83722280Y-114657025D01*
X83905988Y-114313311D01*
X84125331Y-113987114D01*
X84379826Y-113681373D01*
X84491455Y-113565365D01*
X84744277Y-113333293D01*
X85013451Y-113123373D01*
X85291664Y-112940498D01*
X85571606Y-112789560D01*
X85792604Y-112694822D01*
X86055167Y-112611621D01*
X86348192Y-112546574D01*
X86663626Y-112500252D01*
X86993422Y-112473232D01*
X87329527Y-112466086D01*
X87663892Y-112479388D01*
G36*
X71834518Y-119446746D02*
G01*
X71898128Y-119482262D01*
X71903609Y-119487892D01*
X71932379Y-119524168D01*
X71962827Y-119573217D01*
X71996007Y-119637862D01*
X72032975Y-119720930D01*
X72074785Y-119825247D01*
X72122494Y-119953638D01*
X72177157Y-120108928D01*
X72239829Y-120293943D01*
X72311566Y-120511510D01*
X72393422Y-120764453D01*
X72470860Y-121006600D01*
X72655813Y-121569617D01*
X72842177Y-122099934D01*
X73033802Y-122607110D01*
X73234539Y-123100708D01*
X73448239Y-123590290D01*
X73678752Y-124085417D01*
X73860310Y-124456767D01*
X73971706Y-124679040D01*
X74073271Y-124878269D01*
X74169155Y-125061968D01*
X74263505Y-125237650D01*
X74360470Y-125412828D01*
X74464197Y-125595016D01*
X74578835Y-125791727D01*
X74708532Y-126010474D01*
X74830257Y-126213600D01*
X74985380Y-126473123D01*
X75118779Y-126699957D01*
X75231837Y-126896885D01*
X75325937Y-127066688D01*
X75402461Y-127212149D01*
X75462794Y-127336049D01*
X75508319Y-127441170D01*
X75540417Y-127530295D01*
X75560474Y-127606206D01*
X75569871Y-127671683D01*
X75571002Y-127703469D01*
X75550227Y-127843942D01*
X75491844Y-127972384D01*
X75399892Y-128084345D01*
X75278411Y-128175374D01*
X75131441Y-128241020D01*
X75066587Y-128259136D01*
X74989103Y-128276275D01*
X74933449Y-128283348D01*
X74880442Y-128280777D01*
X74810898Y-128268982D01*
X74791406Y-128265178D01*
X74712783Y-128243463D01*
X74637565Y-128208137D01*
X74562880Y-128155981D01*
X74485852Y-128083779D01*
X74403606Y-127988314D01*
X74313269Y-127866366D01*
X74211966Y-127714720D01*
X74096822Y-127530157D01*
X74018696Y-127400264D01*
X73625993Y-126706689D01*
X73271462Y-126008650D01*
X72951115Y-125297868D01*
X72687326Y-124636683D01*
X72517112Y-124167845D01*
X72355866Y-123692339D01*
X72205028Y-123215510D01*
X72066038Y-122742699D01*
X71940334Y-122279249D01*
X71829356Y-121830502D01*
X71734543Y-121401800D01*
X71657333Y-120998486D01*
X71599167Y-120625902D01*
X71591777Y-120569908D01*
X71575712Y-120423276D01*
X71563421Y-120267328D01*
X71555043Y-120109656D01*
X71550719Y-119957854D01*
X71550591Y-119819516D01*
X71554797Y-119702235D01*
X71563480Y-119613604D01*
X71573261Y-119569782D01*
X71614988Y-119505359D01*
X71680643Y-119461345D01*
X71757922Y-119440790D01*
X71834518Y-119446746D01*
X71834518Y-119446746D01*
G37*
X71834518Y-119446746D02*
X71898128Y-119482262D01*
X71903609Y-119487892D01*
X71932379Y-119524168D01*
X71962827Y-119573217D01*
X71996007Y-119637862D01*
X72032975Y-119720930D01*
X72074785Y-119825247D01*
X72122494Y-119953638D01*
X72177157Y-120108928D01*
X72239829Y-120293943D01*
X72311566Y-120511510D01*
X72393422Y-120764453D01*
X72470860Y-121006600D01*
X72655813Y-121569617D01*
X72842177Y-122099934D01*
X73033802Y-122607110D01*
X73234539Y-123100708D01*
X73448239Y-123590290D01*
X73678752Y-124085417D01*
X73860310Y-124456767D01*
X73971706Y-124679040D01*
X74073271Y-124878269D01*
X74169155Y-125061968D01*
X74263505Y-125237650D01*
X74360470Y-125412828D01*
X74464197Y-125595016D01*
X74578835Y-125791727D01*
X74708532Y-126010474D01*
X74830257Y-126213600D01*
X74985380Y-126473123D01*
X75118779Y-126699957D01*
X75231837Y-126896885D01*
X75325937Y-127066688D01*
X75402461Y-127212149D01*
X75462794Y-127336049D01*
X75508319Y-127441170D01*
X75540417Y-127530295D01*
X75560474Y-127606206D01*
X75569871Y-127671683D01*
X75571002Y-127703469D01*
X75550227Y-127843942D01*
X75491844Y-127972384D01*
X75399892Y-128084345D01*
X75278411Y-128175374D01*
X75131441Y-128241020D01*
X75066587Y-128259136D01*
X74989103Y-128276275D01*
X74933449Y-128283348D01*
X74880442Y-128280777D01*
X74810898Y-128268982D01*
X74791406Y-128265178D01*
X74712783Y-128243463D01*
X74637565Y-128208137D01*
X74562880Y-128155981D01*
X74485852Y-128083779D01*
X74403606Y-127988314D01*
X74313269Y-127866366D01*
X74211966Y-127714720D01*
X74096822Y-127530157D01*
X74018696Y-127400264D01*
X73625993Y-126706689D01*
X73271462Y-126008650D01*
X72951115Y-125297868D01*
X72687326Y-124636683D01*
X72517112Y-124167845D01*
X72355866Y-123692339D01*
X72205028Y-123215510D01*
X72066038Y-122742699D01*
X71940334Y-122279249D01*
X71829356Y-121830502D01*
X71734543Y-121401800D01*
X71657333Y-120998486D01*
X71599167Y-120625902D01*
X71591777Y-120569908D01*
X71575712Y-120423276D01*
X71563421Y-120267328D01*
X71555043Y-120109656D01*
X71550719Y-119957854D01*
X71550591Y-119819516D01*
X71554797Y-119702235D01*
X71563480Y-119613604D01*
X71573261Y-119569782D01*
X71614988Y-119505359D01*
X71680643Y-119461345D01*
X71757922Y-119440790D01*
X71834518Y-119446746D01*
G36*
X79362934Y-134704471D02*
G01*
X79487300Y-134705313D01*
X79676940Y-134707278D01*
X79829203Y-134709304D01*
X79949041Y-134711727D01*
X80041411Y-134714882D01*
X80111265Y-134719105D01*
X80163559Y-134724731D01*
X80203246Y-134732096D01*
X80235282Y-134741536D01*
X80264620Y-134753387D01*
X80276473Y-134758768D01*
X80335078Y-134791116D01*
X80379818Y-134830466D01*
X80411090Y-134881233D01*
X80429294Y-134947836D01*
X80434829Y-135034692D01*
X80428094Y-135146219D01*
X80409488Y-135286833D01*
X80379410Y-135460953D01*
X80352555Y-135601017D01*
X80323523Y-135757034D01*
X80303748Y-135887524D01*
X80291559Y-136007861D01*
X80285283Y-136133414D01*
X80283484Y-136236017D01*
X80283148Y-136357376D01*
X80285060Y-136444730D01*
X80290119Y-136506387D01*
X80299225Y-136550653D01*
X80313280Y-136585837D01*
X80323383Y-136604221D01*
X80397292Y-136696126D01*
X80490839Y-136751379D01*
X80573643Y-136770114D01*
X80690582Y-136773853D01*
X80783611Y-136752396D01*
X80865458Y-136701754D01*
X80903787Y-136666632D01*
X80909767Y-136659350D01*
X83122143Y-136659350D01*
X83130559Y-136813068D01*
X83160920Y-136960296D01*
X83216607Y-137113622D01*
X83279498Y-137244962D01*
X83370038Y-137395764D01*
X83465112Y-137508807D01*
X83562937Y-137582077D01*
X83589769Y-137594855D01*
X83700512Y-137628064D01*
X83837549Y-137649693D01*
X83986241Y-137658956D01*
X84131951Y-137655072D01*
X84260038Y-137637256D01*
X84282394Y-137631916D01*
X84402232Y-137592261D01*
X84477492Y-137553370D01*
X89461729Y-137553370D01*
X89497029Y-137737032D01*
X89568579Y-137911397D01*
X89675191Y-138071506D01*
X89815677Y-138212399D01*
X89889819Y-138268339D01*
X90057536Y-138364510D01*
X90228732Y-138421772D01*
X90413370Y-138443048D01*
X90483383Y-138442522D01*
X90588091Y-138436400D01*
X90667712Y-138424231D01*
X90739429Y-138402267D01*
X90811467Y-138371009D01*
X90988139Y-138265213D01*
X91136771Y-138128403D01*
X91255096Y-137963146D01*
X91340848Y-137772011D01*
X91341324Y-137770600D01*
X91378143Y-137597125D01*
X91377424Y-137415322D01*
X91340783Y-137232960D01*
X91269834Y-137057808D01*
X91166193Y-136897638D01*
X91157640Y-136887047D01*
X91066720Y-136794933D01*
X90949589Y-136703137D01*
X90821012Y-136621601D01*
X90695751Y-136560266D01*
X90645754Y-136542322D01*
X90452475Y-136502613D01*
X90266520Y-136503847D01*
X90090532Y-136544894D01*
X89927153Y-136624622D01*
X89779024Y-136741900D01*
X89648788Y-136895600D01*
X89585202Y-136996197D01*
X89504627Y-137177993D01*
X89463866Y-137365370D01*
X89461729Y-137553370D01*
X84477492Y-137553370D01*
X84511157Y-137535974D01*
X84619553Y-137456492D01*
X84737801Y-137347248D01*
X84746664Y-137338369D01*
X84889075Y-137172788D01*
X84989274Y-137005127D01*
X85047242Y-136835464D01*
X85062961Y-136663876D01*
X85036415Y-136490439D01*
X84976330Y-136332743D01*
X84936960Y-136267437D01*
X84876746Y-136185474D01*
X84805374Y-136099524D01*
X84761487Y-136051589D01*
X84670990Y-135961694D01*
X84590416Y-135894763D01*
X84504798Y-135839514D01*
X84422547Y-135796112D01*
X84338412Y-135755354D01*
X84275051Y-135729379D01*
X84217798Y-135714862D01*
X84151991Y-135708473D01*
X84062966Y-135706887D01*
X84029146Y-135706850D01*
X83927058Y-135708003D01*
X83853457Y-135713192D01*
X83794519Y-135725011D01*
X83736422Y-135746053D01*
X83678300Y-135772686D01*
X83502498Y-135878771D01*
X83357768Y-136012556D01*
X83245928Y-136171142D01*
X83168799Y-136351628D01*
X83128198Y-136551113D01*
X83122143Y-136659350D01*
X80909767Y-136659350D01*
X80984175Y-136568746D01*
X81054596Y-136444486D01*
X81116022Y-136290855D01*
X81169430Y-136104860D01*
X81215793Y-135883505D01*
X81256085Y-135623793D01*
X81264751Y-135557089D01*
X81291512Y-135355845D01*
X81317111Y-135192596D01*
X81343121Y-135063089D01*
X81371116Y-134963076D01*
X81402670Y-134888304D01*
X81439355Y-134834523D01*
X81482746Y-134797482D01*
X81534416Y-134772931D01*
X81557702Y-134765670D01*
X81608302Y-134755715D01*
X81678610Y-134749090D01*
X81771723Y-134745852D01*
X81890740Y-134746053D01*
X82038760Y-134749747D01*
X82218880Y-134756988D01*
X82434198Y-134767830D01*
X82687813Y-134782327D01*
X82757550Y-134786528D01*
X82983689Y-134800658D01*
X83230286Y-134816762D01*
X83492447Y-134834474D01*
X83765277Y-134853427D01*
X84043879Y-134873254D01*
X84323359Y-134893587D01*
X84598821Y-134914060D01*
X84865370Y-134934306D01*
X85118110Y-134953958D01*
X85352146Y-134972648D01*
X85562583Y-134990010D01*
X85744526Y-135005677D01*
X85893078Y-135019281D01*
X85985467Y-135028526D01*
X86245503Y-135056557D01*
X86465679Y-135081274D01*
X86648309Y-135103010D01*
X86795709Y-135122099D01*
X86910194Y-135138874D01*
X86994079Y-135153670D01*
X87049679Y-135166819D01*
X87079309Y-135178655D01*
X87085884Y-135187070D01*
X87083272Y-135218542D01*
X87076223Y-135284053D01*
X87065645Y-135375648D01*
X87052448Y-135485372D01*
X87043550Y-135557406D01*
X87019864Y-135769501D01*
X87006958Y-135945178D01*
X87005300Y-136089078D01*
X87015358Y-136205839D01*
X87037600Y-136300102D01*
X87072496Y-136376509D01*
X87120513Y-136439698D01*
X87133980Y-136453353D01*
X87216439Y-136507029D01*
X87322894Y-136539313D01*
X87440320Y-136549338D01*
X87555688Y-136536240D01*
X87655972Y-136499153D01*
X87672539Y-136489130D01*
X87725612Y-136433935D01*
X87774999Y-136339816D01*
X87821091Y-136205775D01*
X87864276Y-136030812D01*
X87878557Y-135960850D01*
X87908903Y-135805537D01*
X87932662Y-135686314D01*
X87951436Y-135597734D01*
X87966827Y-135534355D01*
X87980436Y-135490730D01*
X87993865Y-135461414D01*
X88008716Y-135440964D01*
X88026590Y-135423934D01*
X88039766Y-135412811D01*
X88101646Y-135375638D01*
X88185249Y-135352443D01*
X88295605Y-135342688D01*
X88437744Y-135345838D01*
X88569009Y-135356424D01*
X88666168Y-135367362D01*
X88800724Y-135384565D01*
X88968314Y-135407367D01*
X89164573Y-135435096D01*
X89385139Y-135467086D01*
X89625647Y-135502668D01*
X89881732Y-135541172D01*
X90149032Y-135581931D01*
X90423183Y-135624276D01*
X90699819Y-135667539D01*
X90974578Y-135711050D01*
X91243096Y-135754141D01*
X91501008Y-135796145D01*
X91743952Y-135836391D01*
X91967562Y-135874212D01*
X92113217Y-135899404D01*
X92577492Y-135981995D01*
X93040840Y-136067131D01*
X93500822Y-136154257D01*
X93954997Y-136242818D01*
X94400925Y-136332259D01*
X94836164Y-136422023D01*
X95258274Y-136511556D01*
X95664816Y-136600302D01*
X96053347Y-136687705D01*
X96421429Y-136773210D01*
X96766621Y-136856262D01*
X97086481Y-136936306D01*
X97378570Y-137012785D01*
X97640447Y-137085144D01*
X97869671Y-137152828D01*
X98063803Y-137215282D01*
X98220401Y-137271949D01*
X98311172Y-137310054D01*
X98392309Y-137350831D01*
X98448952Y-137392258D01*
X98488498Y-137444402D01*
X98518339Y-137517332D01*
X98545870Y-137621117D01*
X98548784Y-137633594D01*
X98571942Y-137753912D01*
X98593314Y-137904497D01*
X98612737Y-138080195D01*
X98630046Y-138275850D01*
X98645076Y-138486306D01*
X98657663Y-138706408D01*
X98667642Y-138931001D01*
X98674849Y-139154928D01*
X98679120Y-139373035D01*
X98680289Y-139580167D01*
X98678192Y-139771167D01*
X98672664Y-139940880D01*
X98663542Y-140084151D01*
X98650660Y-140195824D01*
X98633854Y-140270744D01*
X98633025Y-140273108D01*
X98580565Y-140373429D01*
X98499956Y-140474277D01*
X98403258Y-140562937D01*
X98302531Y-140626693D01*
X98293883Y-140630684D01*
X98174949Y-140666306D01*
X98023620Y-140683001D01*
X97845490Y-140680523D01*
X97648300Y-140658954D01*
X97581614Y-140647306D01*
X97479692Y-140627459D01*
X97348557Y-140600680D01*
X97194234Y-140568235D01*
X97022748Y-140531394D01*
X96840122Y-140491422D01*
X96652381Y-140449587D01*
X96642883Y-140447450D01*
X96472903Y-140409253D01*
X96277786Y-140365520D01*
X96062547Y-140317368D01*
X95832198Y-140265910D01*
X95591753Y-140212264D01*
X95346226Y-140157544D01*
X95100631Y-140102866D01*
X94859982Y-140049345D01*
X94629291Y-139998097D01*
X94413573Y-139950237D01*
X94217842Y-139906882D01*
X94047110Y-139869145D01*
X93906392Y-139838143D01*
X93800702Y-139814992D01*
X93780092Y-139810508D01*
X93700272Y-139791602D01*
X93653763Y-139775106D01*
X93632082Y-139756660D01*
X93626751Y-139731905D01*
X93626751Y-139731683D01*
X93630018Y-139697926D01*
X93639090Y-139629202D01*
X93652978Y-139532330D01*
X93670696Y-139414128D01*
X93691256Y-139281415D01*
X93699212Y-139231100D01*
X93734730Y-139006900D01*
X93764030Y-138819478D01*
X93787715Y-138663833D01*
X93791358Y-138638692D01*
X95819276Y-138638692D01*
X95827576Y-138825908D01*
X95869658Y-139005848D01*
X95943364Y-139173564D01*
X96046535Y-139324109D01*
X96177012Y-139452536D01*
X96332638Y-139553896D01*
X96505813Y-139621742D01*
X96628209Y-139642584D01*
X96770260Y-139646137D01*
X96913295Y-139633087D01*
X97038643Y-139604120D01*
X97045050Y-139601941D01*
X97213056Y-139524604D01*
X97368508Y-139416852D01*
X97506084Y-139285136D01*
X97620460Y-139135902D01*
X97706315Y-138975601D01*
X97758326Y-138810681D01*
X97770388Y-138723088D01*
X97762422Y-138550099D01*
X97716677Y-138381992D01*
X97637709Y-138223403D01*
X97530070Y-138078968D01*
X97398315Y-137953325D01*
X97246998Y-137851110D01*
X97080673Y-137776960D01*
X96903896Y-137735511D01*
X96793267Y-137728267D01*
X96600158Y-137747354D01*
X96416215Y-137802136D01*
X96247572Y-137888896D01*
X96100360Y-138003916D01*
X95980712Y-138143476D01*
X95912657Y-138262220D01*
X95846916Y-138449147D01*
X95819276Y-138638692D01*
X93791358Y-138638692D01*
X93806389Y-138534964D01*
X93820655Y-138427867D01*
X93831116Y-138337542D01*
X93838376Y-138258987D01*
X93843037Y-138187200D01*
X93845703Y-138117180D01*
X93846978Y-138043924D01*
X93847288Y-138003433D01*
X93847222Y-137884038D01*
X93844822Y-137798421D01*
X93839116Y-137738048D01*
X93829132Y-137694385D01*
X93813899Y-137658897D01*
X93806550Y-137645812D01*
X93740002Y-137559263D01*
X93658003Y-137506465D01*
X93550888Y-137481686D01*
X93526376Y-137479638D01*
X93417515Y-137483678D01*
X93326693Y-137514926D01*
X93244028Y-137578373D01*
X93176667Y-137656269D01*
X93124439Y-137731932D01*
X93077945Y-137817086D01*
X93035934Y-137916175D01*
X92997157Y-138033637D01*
X92960365Y-138173915D01*
X92924308Y-138341449D01*
X92887736Y-138540681D01*
X92849400Y-138776051D01*
X92834808Y-138871267D01*
X92804977Y-139059454D01*
X92777100Y-139209676D01*
X92749003Y-139326100D01*
X92718518Y-139412895D01*
X92683473Y-139474226D01*
X92641696Y-139514261D01*
X92591018Y-139537167D01*
X92529266Y-139547112D01*
X92481943Y-139548600D01*
X92438589Y-139545422D01*
X92357307Y-139536253D01*
X92241996Y-139521636D01*
X92096552Y-139502117D01*
X91924873Y-139478241D01*
X91730858Y-139450551D01*
X91518404Y-139419593D01*
X91291408Y-139385911D01*
X91053770Y-139350050D01*
X90972856Y-139337705D01*
X90446598Y-139257506D01*
X89957753Y-139183709D01*
X89501985Y-139115728D01*
X89074954Y-139052975D01*
X88672323Y-138994863D01*
X88289754Y-138940806D01*
X87922907Y-138890216D01*
X87567446Y-138842507D01*
X87219031Y-138797091D01*
X86873325Y-138753382D01*
X86525990Y-138710792D01*
X86172686Y-138668735D01*
X85809077Y-138626623D01*
X85430823Y-138583870D01*
X85265800Y-138565498D01*
X84166445Y-138449072D01*
X83102546Y-138347591D01*
X82070069Y-138260752D01*
X81064977Y-138188254D01*
X80083236Y-138129791D01*
X79120810Y-138085062D01*
X78640633Y-138067589D01*
X78236414Y-138053380D01*
X77870800Y-138038626D01*
X77540064Y-138023120D01*
X77240478Y-138006657D01*
X76968316Y-137989032D01*
X76719850Y-137970038D01*
X76491354Y-137949470D01*
X76481633Y-137948519D01*
X76347696Y-137934448D01*
X76246509Y-137921065D01*
X76168571Y-137906418D01*
X76104383Y-137888552D01*
X76044442Y-137865514D01*
X76015967Y-137852774D01*
X75882067Y-137779838D01*
X75784579Y-137698056D01*
X75718497Y-137599925D01*
X75678819Y-137477939D01*
X75660541Y-137324594D01*
X75660264Y-137319302D01*
X75657954Y-137218823D01*
X75661865Y-137115740D01*
X75672951Y-137005187D01*
X75692167Y-136882296D01*
X75720465Y-136742201D01*
X75758800Y-136580037D01*
X75808125Y-136390936D01*
X75809997Y-136384183D01*
X76754640Y-136384183D01*
X76762937Y-136558513D01*
X76789074Y-136701892D01*
X76836959Y-136823340D01*
X76910493Y-136931880D01*
X77013583Y-137036533D01*
X77050792Y-137068466D01*
X77227274Y-137192880D01*
X77412391Y-137278181D01*
X77541211Y-137314338D01*
X77626854Y-137332370D01*
X77686978Y-137341903D01*
X77737409Y-137343536D01*
X77793971Y-137337867D01*
X77865659Y-137326615D01*
X78013863Y-137287527D01*
X78163424Y-137222230D01*
X78296997Y-137139036D01*
X78352226Y-137093456D01*
X78481883Y-136947200D01*
X78576643Y-136783620D01*
X78637264Y-136608013D01*
X78664502Y-136425676D01*
X78659113Y-136241905D01*
X78621854Y-136061997D01*
X78553480Y-135891248D01*
X78454748Y-135734957D01*
X78326414Y-135598418D01*
X78169234Y-135486930D01*
X78119055Y-135460379D01*
X78044539Y-135426128D01*
X77979943Y-135404352D01*
X77909964Y-135391608D01*
X77819299Y-135384453D01*
X77772078Y-135382316D01*
X77569162Y-135387839D01*
X77391806Y-135423348D01*
X77233664Y-135491002D01*
X77088391Y-135592961D01*
X77048345Y-135628711D01*
X76926426Y-135765583D01*
X76838421Y-135918391D01*
X76782500Y-136091842D01*
X76756834Y-136290641D01*
X76754640Y-136384183D01*
X75809997Y-136384183D01*
X75869394Y-136170032D01*
X75920268Y-135992600D01*
X75987035Y-135767258D01*
X76046650Y-135578830D01*
X76101181Y-135422916D01*
X76152696Y-135295112D01*
X76203263Y-135191016D01*
X76254949Y-135106226D01*
X76309822Y-135036340D01*
X76369950Y-134976955D01*
X76414320Y-134940762D01*
X76516690Y-134880655D01*
X76653216Y-134828205D01*
X76816020Y-134786065D01*
X76936717Y-134764798D01*
X77004457Y-134757855D01*
X77109705Y-134750884D01*
X77247635Y-134743996D01*
X77413423Y-134737304D01*
X77602243Y-134730921D01*
X77809270Y-134724959D01*
X78029679Y-134719531D01*
X78258644Y-134714749D01*
X78491341Y-134710725D01*
X78722943Y-134707573D01*
X78948626Y-134705405D01*
X79163565Y-134704333D01*
X79362934Y-134704471D01*
X79362934Y-134704471D01*
G37*
X79362934Y-134704471D02*
X79487300Y-134705313D01*
X79676940Y-134707278D01*
X79829203Y-134709304D01*
X79949041Y-134711727D01*
X80041411Y-134714882D01*
X80111265Y-134719105D01*
X80163559Y-134724731D01*
X80203246Y-134732096D01*
X80235282Y-134741536D01*
X80264620Y-134753387D01*
X80276473Y-134758768D01*
X80335078Y-134791116D01*
X80379818Y-134830466D01*
X80411090Y-134881233D01*
X80429294Y-134947836D01*
X80434829Y-135034692D01*
X80428094Y-135146219D01*
X80409488Y-135286833D01*
X80379410Y-135460953D01*
X80352555Y-135601017D01*
X80323523Y-135757034D01*
X80303748Y-135887524D01*
X80291559Y-136007861D01*
X80285283Y-136133414D01*
X80283484Y-136236017D01*
X80283148Y-136357376D01*
X80285060Y-136444730D01*
X80290119Y-136506387D01*
X80299225Y-136550653D01*
X80313280Y-136585837D01*
X80323383Y-136604221D01*
X80397292Y-136696126D01*
X80490839Y-136751379D01*
X80573643Y-136770114D01*
X80690582Y-136773853D01*
X80783611Y-136752396D01*
X80865458Y-136701754D01*
X80903787Y-136666632D01*
X80909767Y-136659350D01*
X83122143Y-136659350D01*
X83130559Y-136813068D01*
X83160920Y-136960296D01*
X83216607Y-137113622D01*
X83279498Y-137244962D01*
X83370038Y-137395764D01*
X83465112Y-137508807D01*
X83562937Y-137582077D01*
X83589769Y-137594855D01*
X83700512Y-137628064D01*
X83837549Y-137649693D01*
X83986241Y-137658956D01*
X84131951Y-137655072D01*
X84260038Y-137637256D01*
X84282394Y-137631916D01*
X84402232Y-137592261D01*
X84477492Y-137553370D01*
X89461729Y-137553370D01*
X89497029Y-137737032D01*
X89568579Y-137911397D01*
X89675191Y-138071506D01*
X89815677Y-138212399D01*
X89889819Y-138268339D01*
X90057536Y-138364510D01*
X90228732Y-138421772D01*
X90413370Y-138443048D01*
X90483383Y-138442522D01*
X90588091Y-138436400D01*
X90667712Y-138424231D01*
X90739429Y-138402267D01*
X90811467Y-138371009D01*
X90988139Y-138265213D01*
X91136771Y-138128403D01*
X91255096Y-137963146D01*
X91340848Y-137772011D01*
X91341324Y-137770600D01*
X91378143Y-137597125D01*
X91377424Y-137415322D01*
X91340783Y-137232960D01*
X91269834Y-137057808D01*
X91166193Y-136897638D01*
X91157640Y-136887047D01*
X91066720Y-136794933D01*
X90949589Y-136703137D01*
X90821012Y-136621601D01*
X90695751Y-136560266D01*
X90645754Y-136542322D01*
X90452475Y-136502613D01*
X90266520Y-136503847D01*
X90090532Y-136544894D01*
X89927153Y-136624622D01*
X89779024Y-136741900D01*
X89648788Y-136895600D01*
X89585202Y-136996197D01*
X89504627Y-137177993D01*
X89463866Y-137365370D01*
X89461729Y-137553370D01*
X84477492Y-137553370D01*
X84511157Y-137535974D01*
X84619553Y-137456492D01*
X84737801Y-137347248D01*
X84746664Y-137338369D01*
X84889075Y-137172788D01*
X84989274Y-137005127D01*
X85047242Y-136835464D01*
X85062961Y-136663876D01*
X85036415Y-136490439D01*
X84976330Y-136332743D01*
X84936960Y-136267437D01*
X84876746Y-136185474D01*
X84805374Y-136099524D01*
X84761487Y-136051589D01*
X84670990Y-135961694D01*
X84590416Y-135894763D01*
X84504798Y-135839514D01*
X84422547Y-135796112D01*
X84338412Y-135755354D01*
X84275051Y-135729379D01*
X84217798Y-135714862D01*
X84151991Y-135708473D01*
X84062966Y-135706887D01*
X84029146Y-135706850D01*
X83927058Y-135708003D01*
X83853457Y-135713192D01*
X83794519Y-135725011D01*
X83736422Y-135746053D01*
X83678300Y-135772686D01*
X83502498Y-135878771D01*
X83357768Y-136012556D01*
X83245928Y-136171142D01*
X83168799Y-136351628D01*
X83128198Y-136551113D01*
X83122143Y-136659350D01*
X80909767Y-136659350D01*
X80984175Y-136568746D01*
X81054596Y-136444486D01*
X81116022Y-136290855D01*
X81169430Y-136104860D01*
X81215793Y-135883505D01*
X81256085Y-135623793D01*
X81264751Y-135557089D01*
X81291512Y-135355845D01*
X81317111Y-135192596D01*
X81343121Y-135063089D01*
X81371116Y-134963076D01*
X81402670Y-134888304D01*
X81439355Y-134834523D01*
X81482746Y-134797482D01*
X81534416Y-134772931D01*
X81557702Y-134765670D01*
X81608302Y-134755715D01*
X81678610Y-134749090D01*
X81771723Y-134745852D01*
X81890740Y-134746053D01*
X82038760Y-134749747D01*
X82218880Y-134756988D01*
X82434198Y-134767830D01*
X82687813Y-134782327D01*
X82757550Y-134786528D01*
X82983689Y-134800658D01*
X83230286Y-134816762D01*
X83492447Y-134834474D01*
X83765277Y-134853427D01*
X84043879Y-134873254D01*
X84323359Y-134893587D01*
X84598821Y-134914060D01*
X84865370Y-134934306D01*
X85118110Y-134953958D01*
X85352146Y-134972648D01*
X85562583Y-134990010D01*
X85744526Y-135005677D01*
X85893078Y-135019281D01*
X85985467Y-135028526D01*
X86245503Y-135056557D01*
X86465679Y-135081274D01*
X86648309Y-135103010D01*
X86795709Y-135122099D01*
X86910194Y-135138874D01*
X86994079Y-135153670D01*
X87049679Y-135166819D01*
X87079309Y-135178655D01*
X87085884Y-135187070D01*
X87083272Y-135218542D01*
X87076223Y-135284053D01*
X87065645Y-135375648D01*
X87052448Y-135485372D01*
X87043550Y-135557406D01*
X87019864Y-135769501D01*
X87006958Y-135945178D01*
X87005300Y-136089078D01*
X87015358Y-136205839D01*
X87037600Y-136300102D01*
X87072496Y-136376509D01*
X87120513Y-136439698D01*
X87133980Y-136453353D01*
X87216439Y-136507029D01*
X87322894Y-136539313D01*
X87440320Y-136549338D01*
X87555688Y-136536240D01*
X87655972Y-136499153D01*
X87672539Y-136489130D01*
X87725612Y-136433935D01*
X87774999Y-136339816D01*
X87821091Y-136205775D01*
X87864276Y-136030812D01*
X87878557Y-135960850D01*
X87908903Y-135805537D01*
X87932662Y-135686314D01*
X87951436Y-135597734D01*
X87966827Y-135534355D01*
X87980436Y-135490730D01*
X87993865Y-135461414D01*
X88008716Y-135440964D01*
X88026590Y-135423934D01*
X88039766Y-135412811D01*
X88101646Y-135375638D01*
X88185249Y-135352443D01*
X88295605Y-135342688D01*
X88437744Y-135345838D01*
X88569009Y-135356424D01*
X88666168Y-135367362D01*
X88800724Y-135384565D01*
X88968314Y-135407367D01*
X89164573Y-135435096D01*
X89385139Y-135467086D01*
X89625647Y-135502668D01*
X89881732Y-135541172D01*
X90149032Y-135581931D01*
X90423183Y-135624276D01*
X90699819Y-135667539D01*
X90974578Y-135711050D01*
X91243096Y-135754141D01*
X91501008Y-135796145D01*
X91743952Y-135836391D01*
X91967562Y-135874212D01*
X92113217Y-135899404D01*
X92577492Y-135981995D01*
X93040840Y-136067131D01*
X93500822Y-136154257D01*
X93954997Y-136242818D01*
X94400925Y-136332259D01*
X94836164Y-136422023D01*
X95258274Y-136511556D01*
X95664816Y-136600302D01*
X96053347Y-136687705D01*
X96421429Y-136773210D01*
X96766621Y-136856262D01*
X97086481Y-136936306D01*
X97378570Y-137012785D01*
X97640447Y-137085144D01*
X97869671Y-137152828D01*
X98063803Y-137215282D01*
X98220401Y-137271949D01*
X98311172Y-137310054D01*
X98392309Y-137350831D01*
X98448952Y-137392258D01*
X98488498Y-137444402D01*
X98518339Y-137517332D01*
X98545870Y-137621117D01*
X98548784Y-137633594D01*
X98571942Y-137753912D01*
X98593314Y-137904497D01*
X98612737Y-138080195D01*
X98630046Y-138275850D01*
X98645076Y-138486306D01*
X98657663Y-138706408D01*
X98667642Y-138931001D01*
X98674849Y-139154928D01*
X98679120Y-139373035D01*
X98680289Y-139580167D01*
X98678192Y-139771167D01*
X98672664Y-139940880D01*
X98663542Y-140084151D01*
X98650660Y-140195824D01*
X98633854Y-140270744D01*
X98633025Y-140273108D01*
X98580565Y-140373429D01*
X98499956Y-140474277D01*
X98403258Y-140562937D01*
X98302531Y-140626693D01*
X98293883Y-140630684D01*
X98174949Y-140666306D01*
X98023620Y-140683001D01*
X97845490Y-140680523D01*
X97648300Y-140658954D01*
X97581614Y-140647306D01*
X97479692Y-140627459D01*
X97348557Y-140600680D01*
X97194234Y-140568235D01*
X97022748Y-140531394D01*
X96840122Y-140491422D01*
X96652381Y-140449587D01*
X96642883Y-140447450D01*
X96472903Y-140409253D01*
X96277786Y-140365520D01*
X96062547Y-140317368D01*
X95832198Y-140265910D01*
X95591753Y-140212264D01*
X95346226Y-140157544D01*
X95100631Y-140102866D01*
X94859982Y-140049345D01*
X94629291Y-139998097D01*
X94413573Y-139950237D01*
X94217842Y-139906882D01*
X94047110Y-139869145D01*
X93906392Y-139838143D01*
X93800702Y-139814992D01*
X93780092Y-139810508D01*
X93700272Y-139791602D01*
X93653763Y-139775106D01*
X93632082Y-139756660D01*
X93626751Y-139731905D01*
X93626751Y-139731683D01*
X93630018Y-139697926D01*
X93639090Y-139629202D01*
X93652978Y-139532330D01*
X93670696Y-139414128D01*
X93691256Y-139281415D01*
X93699212Y-139231100D01*
X93734730Y-139006900D01*
X93764030Y-138819478D01*
X93787715Y-138663833D01*
X93791358Y-138638692D01*
X95819276Y-138638692D01*
X95827576Y-138825908D01*
X95869658Y-139005848D01*
X95943364Y-139173564D01*
X96046535Y-139324109D01*
X96177012Y-139452536D01*
X96332638Y-139553896D01*
X96505813Y-139621742D01*
X96628209Y-139642584D01*
X96770260Y-139646137D01*
X96913295Y-139633087D01*
X97038643Y-139604120D01*
X97045050Y-139601941D01*
X97213056Y-139524604D01*
X97368508Y-139416852D01*
X97506084Y-139285136D01*
X97620460Y-139135902D01*
X97706315Y-138975601D01*
X97758326Y-138810681D01*
X97770388Y-138723088D01*
X97762422Y-138550099D01*
X97716677Y-138381992D01*
X97637709Y-138223403D01*
X97530070Y-138078968D01*
X97398315Y-137953325D01*
X97246998Y-137851110D01*
X97080673Y-137776960D01*
X96903896Y-137735511D01*
X96793267Y-137728267D01*
X96600158Y-137747354D01*
X96416215Y-137802136D01*
X96247572Y-137888896D01*
X96100360Y-138003916D01*
X95980712Y-138143476D01*
X95912657Y-138262220D01*
X95846916Y-138449147D01*
X95819276Y-138638692D01*
X93791358Y-138638692D01*
X93806389Y-138534964D01*
X93820655Y-138427867D01*
X93831116Y-138337542D01*
X93838376Y-138258987D01*
X93843037Y-138187200D01*
X93845703Y-138117180D01*
X93846978Y-138043924D01*
X93847288Y-138003433D01*
X93847222Y-137884038D01*
X93844822Y-137798421D01*
X93839116Y-137738048D01*
X93829132Y-137694385D01*
X93813899Y-137658897D01*
X93806550Y-137645812D01*
X93740002Y-137559263D01*
X93658003Y-137506465D01*
X93550888Y-137481686D01*
X93526376Y-137479638D01*
X93417515Y-137483678D01*
X93326693Y-137514926D01*
X93244028Y-137578373D01*
X93176667Y-137656269D01*
X93124439Y-137731932D01*
X93077945Y-137817086D01*
X93035934Y-137916175D01*
X92997157Y-138033637D01*
X92960365Y-138173915D01*
X92924308Y-138341449D01*
X92887736Y-138540681D01*
X92849400Y-138776051D01*
X92834808Y-138871267D01*
X92804977Y-139059454D01*
X92777100Y-139209676D01*
X92749003Y-139326100D01*
X92718518Y-139412895D01*
X92683473Y-139474226D01*
X92641696Y-139514261D01*
X92591018Y-139537167D01*
X92529266Y-139547112D01*
X92481943Y-139548600D01*
X92438589Y-139545422D01*
X92357307Y-139536253D01*
X92241996Y-139521636D01*
X92096552Y-139502117D01*
X91924873Y-139478241D01*
X91730858Y-139450551D01*
X91518404Y-139419593D01*
X91291408Y-139385911D01*
X91053770Y-139350050D01*
X90972856Y-139337705D01*
X90446598Y-139257506D01*
X89957753Y-139183709D01*
X89501985Y-139115728D01*
X89074954Y-139052975D01*
X88672323Y-138994863D01*
X88289754Y-138940806D01*
X87922907Y-138890216D01*
X87567446Y-138842507D01*
X87219031Y-138797091D01*
X86873325Y-138753382D01*
X86525990Y-138710792D01*
X86172686Y-138668735D01*
X85809077Y-138626623D01*
X85430823Y-138583870D01*
X85265800Y-138565498D01*
X84166445Y-138449072D01*
X83102546Y-138347591D01*
X82070069Y-138260752D01*
X81064977Y-138188254D01*
X80083236Y-138129791D01*
X79120810Y-138085062D01*
X78640633Y-138067589D01*
X78236414Y-138053380D01*
X77870800Y-138038626D01*
X77540064Y-138023120D01*
X77240478Y-138006657D01*
X76968316Y-137989032D01*
X76719850Y-137970038D01*
X76491354Y-137949470D01*
X76481633Y-137948519D01*
X76347696Y-137934448D01*
X76246509Y-137921065D01*
X76168571Y-137906418D01*
X76104383Y-137888552D01*
X76044442Y-137865514D01*
X76015967Y-137852774D01*
X75882067Y-137779838D01*
X75784579Y-137698056D01*
X75718497Y-137599925D01*
X75678819Y-137477939D01*
X75660541Y-137324594D01*
X75660264Y-137319302D01*
X75657954Y-137218823D01*
X75661865Y-137115740D01*
X75672951Y-137005187D01*
X75692167Y-136882296D01*
X75720465Y-136742201D01*
X75758800Y-136580037D01*
X75808125Y-136390936D01*
X75809997Y-136384183D01*
X76754640Y-136384183D01*
X76762937Y-136558513D01*
X76789074Y-136701892D01*
X76836959Y-136823340D01*
X76910493Y-136931880D01*
X77013583Y-137036533D01*
X77050792Y-137068466D01*
X77227274Y-137192880D01*
X77412391Y-137278181D01*
X77541211Y-137314338D01*
X77626854Y-137332370D01*
X77686978Y-137341903D01*
X77737409Y-137343536D01*
X77793971Y-137337867D01*
X77865659Y-137326615D01*
X78013863Y-137287527D01*
X78163424Y-137222230D01*
X78296997Y-137139036D01*
X78352226Y-137093456D01*
X78481883Y-136947200D01*
X78576643Y-136783620D01*
X78637264Y-136608013D01*
X78664502Y-136425676D01*
X78659113Y-136241905D01*
X78621854Y-136061997D01*
X78553480Y-135891248D01*
X78454748Y-135734957D01*
X78326414Y-135598418D01*
X78169234Y-135486930D01*
X78119055Y-135460379D01*
X78044539Y-135426128D01*
X77979943Y-135404352D01*
X77909964Y-135391608D01*
X77819299Y-135384453D01*
X77772078Y-135382316D01*
X77569162Y-135387839D01*
X77391806Y-135423348D01*
X77233664Y-135491002D01*
X77088391Y-135592961D01*
X77048345Y-135628711D01*
X76926426Y-135765583D01*
X76838421Y-135918391D01*
X76782500Y-136091842D01*
X76756834Y-136290641D01*
X76754640Y-136384183D01*
X75809997Y-136384183D01*
X75869394Y-136170032D01*
X75920268Y-135992600D01*
X75987035Y-135767258D01*
X76046650Y-135578830D01*
X76101181Y-135422916D01*
X76152696Y-135295112D01*
X76203263Y-135191016D01*
X76254949Y-135106226D01*
X76309822Y-135036340D01*
X76369950Y-134976955D01*
X76414320Y-134940762D01*
X76516690Y-134880655D01*
X76653216Y-134828205D01*
X76816020Y-134786065D01*
X76936717Y-134764798D01*
X77004457Y-134757855D01*
X77109705Y-134750884D01*
X77247635Y-134743996D01*
X77413423Y-134737304D01*
X77602243Y-134730921D01*
X77809270Y-134724959D01*
X78029679Y-134719531D01*
X78258644Y-134714749D01*
X78491341Y-134710725D01*
X78722943Y-134707573D01*
X78948626Y-134705405D01*
X79163565Y-134704333D01*
X79362934Y-134704471D01*
M02*
